<?xml version="1.0" encoding="utf-8"?>
<!-- Generator: Adobe Illustrator 18.1.1, SVG Export Plug-In . SVG Version: 6.00 Build 0)  -->
<!DOCTYPE svg PUBLIC "-//W3C//DTD SVG 1.1//EN" "http://www.w3.org/Graphics/SVG/1.1/DTD/svg11.dtd">
<svg version="1.1" id="Ebene_1" xmlns="http://www.w3.org/2000/svg" xmlns:xlink="http://www.w3.org/1999/xlink" x="0px" y="0px"
	 viewBox="0 0 100 100" enable-background="new 0 0 100 100" xml:space="preserve">
<g>
	<path opacity="0.1091" d="M20.2,23.4c-1.5,0.6-1.3,0.4-2.2,1.4c-1.2,1.2-1.9,2.8-2.4,4.4c-1,3-1.2,6.3-1.9,9.4
		c-1.7,7.2-3.3,14.2-2.9,21.6c0.3,4.8,1.3,9.1,3.6,13.3C21,85.8,35.5,91.7,48.5,94c7.4,1.3,16.2,1,22.3-4.1
		C80,82,82.7,69.4,82.7,57.7c0-13.9-3.6-28.8-13.5-39.1C62.9,12,53.6,9.1,44.6,9.3C32.5,9.6,21,14.7,10,19.6
		c-0.9,0.4,2.6,2.6,3.4,2.3c6.5-2.8,13-5.5,19.8-7.4c13.5-3.6,26.1-2.3,34.7,6.9c2.2,2.4,4.1,5,5.6,7.9c3.3,6.1,5,13,5.9,19.9
		c0.5,3.9,0.6,7.8,0.4,11.7c-0.1,4.5-1.2,8.8-3.4,12.9C74.9,83.2,68.9,89,58.3,91c-6.1,0.4-12.3-0.9-18-2.9
		c-3.8-1.9-7.7-3.8-11.5-5.7c-1.7-1-3.2-2.2-4.6-3.6c-1.4-1.2-2.7-2.6-3.9-4.1c-1.8-6.4-3.7-12.7-5.5-19.1c0-2.3,0.3-4.6,0.7-6.9
		c0.3-2.4,0.8-4.8,1.3-7.1c0.4-1.6,0.7-3.2,1.1-4.8c0.5-0.6,0.8-1.4,0.8-2.3c0.4-1.7,0.8-3.1,1.4-4.7c0.7-1.8,1-3,3.2-3.5
		C24.2,26,21,23.1,20.2,23.4z"/>
	<path opacity="0.1091" d="M20.3,21.4c-1.3,0.6-1.2,0.4-2,1.3c-1.1,1.3-1.7,2.9-2.1,4.5c-0.8,3-1,6.2-1.8,9.2
		c-1.9,7-3.2,14.4-2.8,21.7c0.4,7.6,3.1,14.4,8.3,19.9c4.7,5,10.6,8.2,16.9,10.7c6.3,2.5,13.3,4.1,20.1,4.1c5,0,10.7-1.5,14.5-4.8
		c3.4-2.9,6.2-6.6,8-10.8c3.3-7.6,4.4-16,4.1-24.3c-0.5-10.6-2.8-21.4-8.5-30.5C69.4,13.8,60.1,7.7,49.6,7.1
		C35.8,6.2,22.8,12,10.4,17.5c-0.7,0.3,0.4,1,0.6,1.2c0.5,0.3,2.3,1.7,3,1.4c9.1-3.7,18.6-7.7,28.6-8.2c3.4-0.2,6.8-0.1,10.1,0.6
		c2.1,0.4,4.1,1,6.1,1.8c5.1,5.3,10.3,10.5,15.4,15.8c1.9,3.4,2.9,7.4,3.8,11.2c2.4,9.7,2.6,22.8-0.2,31.4c-0.5,1.4-1,2.7-1.4,4.1
		c-3.2,7.8-8.2,12.3-15,13.5c-3.6,0.8-7.2,0.7-10.9,0.1c-14.4-2.1-30.6-9.6-35-24.6c-2.5-8.3-1.3-17.2,0.7-25.5
		c0.6-2.4,1.6-6.1,2.6-8.8c1-2.7,2-6.1,5.3-6.8c1-0.2-0.8-1.5-1-1.6C22.5,22.4,21.2,21.1,20.3,21.4z"/>
	<path opacity="0.1091" d="M21.5,23.2c-1.5,0.6-1.3,0.4-2.2,1.4c-1.2,1.2-1.8,2.7-2.3,4.3c-1,3-1.2,6.2-1.9,9.2
		c-3.2,12.7-5.3,27.1,2.8,38.4c5.3,7.4,13.4,11.7,21.9,14.7c5.7,2,11.9,3.5,17.9,3.3c3.8-0.1,7.7-0.7,11.1-2.6
		C83,83.7,85,64.5,83.5,49.9c-1-10.2-4.1-20.7-10.6-28.7c-2.5-3.1-5.6-5.9-9-7.9c-4.8-2.8-10.4-4-15.8-4.1
		c-12.9-0.4-25.2,5-36.7,10.2c-0.9,0.4,2.1,2.3,2.8,2c6.6-2.8,13.2-5.5,20.1-7.2c5.5-1.6,11-1.3,16.6,1.1c6.2-1.2,11.2,0.2,15,4.1
		c2.4,2.2,4.4,4.5,6.2,7.2c3.7,5.6,5.7,12,6.8,18.6c1.2,6.8,1.3,13.7,0.4,20.6c-0.6,4-1.7,8.6-3.6,12.2c-1.6,3-3.4,5.7-5.9,7.9
		c-4.7,4.1-11.5,5.3-17.6,4.5c-3.1-0.4-6.1-1.1-9-1.9c-1.9-0.5-3.8-1.2-5.6-2.1C30.5,79,23.3,71.8,16.2,64.5
		c-1.3-4.1-1.1-9.5-0.6-13.6c0.5-4.2,1.3-8.3,2.4-12.3c0.5-2,0.9-3.9,1.4-5.9c0.7-2.7,1.5-6.2,4.6-7.1C25,25.4,22.2,22.9,21.5,23.2z
		"/>
	<path opacity="0.1091" d="M22,23.9c-1.8,1-2.9,2.1-3.8,4c-1,2.4-1.5,5-1.8,7.6c-0.6,4.7-1.9,9.3-2.6,14c-1,6.3-1.3,12.9,0.4,19.1
		c2.8,10.2,10.9,17.7,20.3,22c4.1,1.9,8.4,3.4,12.8,4.5c5.1,1.2,10.6,2.1,15.8,1.3c4.9-0.8,9.1-2.8,12.6-6.3c5.1-5.2,7.6-12,9-19
		c1.3-6.4,1.2-13.3,0.5-19.7c-0.7-6.8-2.3-13.6-5.2-19.9c-2.9-6.4-7.1-12-12.8-16.1c-4.5-3.2-10-5-15.6-5.5
		c-13.9-1.4-27.5,4.8-39.9,10.4c-0.4,0.2-0.5,1.2,0,1c9.6-4.5,19.6-9.1,30.2-10.4c10.6-1.3,21.8,1.6,29,9.9
		c5.1,5.9,8.1,12.8,9.8,20.3c2.7,11.9,2.6,25.3-2.3,36.6c-1.4,3.1-3.2,6-5.6,8.6c-1.7,1.8-3.7,3.2-6,4.3c-4.4,0.6-8.9,1.1-13.3,1.7
		C50.2,92,46,91,42.7,90c-4.6-1.4-8.7-3.7-12.5-6.8c-4.8-1.6-8.4-4.4-11-8.4c-2.3-3.4-3.8-7.6-4.4-11.6c-0.1-1.6-0.3-3.1-0.4-4.7
		c0.2-6.4,1-12.7,2.6-18.9c0.8-4.8-0.4-11.8,4.8-14.7C22.4,24.7,22.5,23.6,22,23.9z"/>
	<path opacity="0.1091" d="M22.4,22.9c-1.5,0.7-2.4,1.4-3.2,2.9c-1.3,2.2-1.8,4.7-2.3,7.2c-1.8,9.7-4.8,19.6-3.5,29.6
		c0.9,6.6,3.7,12.6,8.3,17.4c4.7,4.9,10.7,8.2,17.1,10.7c5.8,2.2,12,3.8,18.2,4.1c3.3,0.1,6.7-0.1,9.8-1.1C80,89.4,85,74.5,85.7,62
		c0.6-10.8-1.1-22.2-5.6-32.1c-2.6-5.6-6.3-10.8-11.2-14.6c-4.3-3.3-9.3-5.2-14.6-6.1C39.6,7,25.5,13.1,12.5,18.9
		c-1,0.4,0.2,1.5,0.8,1.3c9.6-4.2,19.6-8.4,30.1-9.1c5.2-0.3,10.3,0.3,15.2,2.1c2.3,0.7,4.4,1.7,6.4,3c1.9,1.5,3.7,3.2,5.4,5
		c6.2,7,9.5,16.7,10.6,25.9c0.2,4.7,0.3,9.3,0.5,14c-0.2,3-0.7,5.9-1.3,8.9c-1.2,4.8-3,9.2-6,13.1c-1.1,1.7-2.5,3.1-4.1,4.3
		c-5.1,3.1-10.5,4.3-16.1,3.7c-3.6-0.3-7.5-1.1-11-2.1c-9-2.7-18.4-7.3-23.7-15.4c-2.3-3.6-3.6-7.6-4.2-11.8
		c-1.3-8.4,1.1-16.7,2.7-24.8c0.3-1.3,0.4-2.6,0.6-3.9c0.2-1.4,0.6-2.7,1-4c0.5-2.6,1.9-4.2,4.1-4.8C24.3,23.9,23,22.6,22.4,22.9z"
		/>
	<path opacity="0.1091" d="M18.2,20.5c-0.9,0.4-1.4,0.6-2,1.4c-0.9,1.1-1.4,2.3-1.8,3.7c-0.9,3-1.1,6.1-1.7,9.2
		C11.5,40.9,9.9,46.7,9.6,53c-0.3,7.1,0.9,13.8,4.4,20c3.3,5.8,8.9,10.2,14.7,13.2c4.8,2.5,9.7,4.3,14.9,5.6
		c8.4,2,17.6,2.5,25.1-2.4c8.1-5.3,11.8-14.9,13-24.2c1-7.4,0.7-15.1-0.7-22.4c-1.2-6.5-3.2-12.9-6.5-18.6
		c-3.1-5.4-7.4-10.3-12.9-13.5c-4.9-2.8-10.5-4.1-16.1-4.3C32.5,5.8,20,11.4,8.3,16.7c-0.8,0.4,0.5,1.1,0.7,1.2
		c0.5,0.3,2.5,1.8,3.2,1.5c10.4-4.4,21.3-9.1,32.7-9c1.4,0,2.7,0.1,4.1,0.1c2.8,0.2,5.6,1,8.2,2.2c2.6,0.5,4.9,1.7,6.9,3.5
		c1,0.8,1.9,1.6,2.9,2.5c5.7,5.3,9.4,13.1,11.3,20.5c2.3,8.4,3.3,17.1,2.4,25.8c-0.4,3.9-1.2,7.8-2.6,11.5
		c-15.6,14.3-30.4,18-44.5,11.1c-2.2-0.9-4.3-2-6.3-3.3c-6.8-4.5-11.9-10.5-14.1-18.4c-2.3-8.4-1.2-17.5,0.9-25.9
		c0.6-2.5,1.7-6.2,2.7-8.9c1-2.7,2.1-6.4,5.4-7.1c1-0.2-0.9-1.6-1.1-1.7C20.6,21.7,19.1,20.1,18.2,20.5z"/>
	<path opacity="0.1091" d="M18.8,22.7c-1,0.4-1.6,0.6-2.3,1.4c-1.2,1.2-1.9,2.9-2.4,4.6c-1.1,3.9-1.4,8-2.3,12
		C9.3,50.8,8,61.4,12.2,71.3C15,77.9,20.8,83,26.9,86.4c5.1,2.9,10.9,5.1,16.5,6.4c5.7,1.3,11.6,2.1,17.4,0.9c4.8-1,9-3.4,12.2-7.1
		c8.4-10,10.1-24.4,8.5-36.9C79.9,36.1,75.1,22,63.4,14.1C56.3,9.2,47.2,7.9,38.8,9c-10.7,1.4-20.5,5.6-30.2,9.9
		c-0.8,0.3,0.5,1.1,0.7,1.2c0.5,0.3,2.5,1.7,3.2,1.4c3.8-1.7,7.6-3.3,11.5-4.8c6.5-2.8,13.4-3.2,20.6-1.2c7.7-3,14.2-2.3,19.4,2.2
		c5.2,4.1,8.8,9.4,11.4,15.4c1.7,4,2.8,8.3,3.6,12.5c0.9,4.6,1.3,9.6,1.1,14.3C79.9,70.7,77,83.4,66.7,89.2
		c-6,3.4-13.2,3.2-19.8,1.7c-4-0.9-7.7-2.1-11.4-3.9c-1.3-0.6-2.7-1.3-4-1.9c-13.1-9.1-19-19.8-17.6-32.3c0.3-4,1-7.9,1.8-11.8
		c-0.2-2,0.3-3.7,1.4-5.1c0.5-0.6,0.7-1.2,0.6-2c0.4-1.6,0.9-3.1,1.5-4.7c0.7-1.7,1.1-2.9,3.2-3.3c0.9-0.2-0.5-1.2-0.6-1.3
		C21.4,24.3,19.4,22.4,18.8,22.7z"/>
	<path opacity="0.1091" d="M20.2,24.9c-1.2,0.5-2,1-2.7,2.1c-0.4,0.5-0.7,1.2-1,1.8c-1.3,2.9-1.7,6.2-2.2,9.3
		c-0.4,2.4-1.1,4.8-1.6,7.1c-0.9,4-1.5,8-1.7,12.1c-0.3,5.6,0.3,11.3,2.6,16.4c5.5,12.6,18.9,18.9,31.6,22
		c6.2,1.5,13.3,2.3,19.5,0.1c12.8-4.6,17.8-18.9,18.8-31.4c0.7-8.9-0.2-18-2.9-26.6c-1.2-4-2.9-8-5.2-11.5
		c-4.1-6.2-9.4-11.3-16.5-13.9c-16.4-6.1-34,1.9-48.8,8.7c-0.8,0.4,0.8,1.4,1.3,1.1c6.6-3.1,13.3-6.2,20.2-8.4
		c4.2-1.3,8.9-2.4,13.3-2.5c1.5,0,3,0,4.5,0.1c5.9,0.1,10.8,2.7,14.6,8c5.8,2.1,9.9,5.7,12.2,11c1.7,5.7,3.4,11.3,5.1,17
		c0.7,4,0.8,8.2,0.6,12.3c-0.2,4.1-0.7,8.1-1.7,12.1c-1.2,6.7-5.6,11-13.3,12.9c-4,6.7-9.2,9.4-15.4,8.1c-6.6-1-12.9-3.1-18.9-6.1
		c-3-1.5-5.8-3.4-8.3-5.6c-1.5-1.2-2.8-2.6-4-4.1c-1.9-4.8-3.9-9.6-5.8-14.4c-0.8-4.4-0.1-9.5,0.6-13.9c0.5-3.4,1.3-6.8,2-10.2
		c0.2-1.2,0.3-2.4,0.4-3.7c0.4-2.9,0.6-7,3.7-8.5C22.2,25.8,20.7,24.6,20.2,24.9z"/>
	<path opacity="0.1091" d="M22.2,21c-1.9,0.8-2.9,1.8-3.8,3.7c-1.1,2.3-1.6,4.9-2.1,7.5c-1.2,6.2-3.2,12.2-3.7,18.5
		c-0.5,6.4,0,12.7,2.4,18.7c4.3,10.8,15.2,16.8,25.6,20.4c10.3,3.5,23.5,5.5,32.6-1.9c10.3-8.3,12.6-23.1,12.3-35.5
		c-0.2-8.5-2-17.3-5.6-25c-2-4.4-4.8-8.7-8.4-12c-4.5-4.2-9.6-6.7-15.6-8.1c-6-1.3-12.4-0.6-18.3,0.6c-8.9,1.8-17.3,5.6-25.5,9.2
		c-0.9,0.4,1.3,1.8,1.9,1.5c6.8-2.8,13.7-5.6,20.9-7c1.5-0.3,2.9-0.5,4.4-0.8c5.7,0.3,11.4,0.7,17.1,1c8.3,14.2,16.6,28.5,25,42.7
		c0.1,2.3,0.1,4.6-0.2,6.8c-0.5,6.4-1.7,13.1-5,18.7c-3.7,3.3-7.4,6.5-11,9.8c-1.7,0.6-3.4,1-5.2,1.1c-3.1,0.3-6.2,0.2-9.2-0.2
		c-4-0.6-8-1.6-11.9-2.9c-3.6-1.2-7-2.8-10.2-4.7c-7.9-4.9-13.7-11.5-14.8-22.4c-0.3-3.2-0.3-6.5,0-9.7c0.5-5.9,2.2-11.7,3.6-17.4
		c0.4-1.4,0.7-2.8,1.2-4.2c0.3-1.6,1.1-2.9,2.4-4c0.6-1.4,1.7-2.2,3.1-2.3C25,22.7,22.8,20.7,22.2,21z"/>
	<path opacity="0.1091" d="M19.3,24.3c-1,0.4-1.5,0.6-2.2,1.4c-1.2,1.2-2,2.8-2.5,4.4c-1.2,3.9-1.6,8-2.6,12c-1.7,7-3.2,14.7-2.1,22
		c0.7,4.5,2.1,8.8,4.5,12.7c3.8,6.2,10.5,10.7,17,13.6c6.3,2.8,13.4,5,20.4,5.5c8.2,0.5,16.2-1.3,21.6-7.8c7.4-8.7,9.7-20.8,9.2-32
		c-0.4-9-2.1-18.7-6.4-26.8c-2-3.7-4.4-7.2-7.4-10.2c-4.2-4.3-9.7-7.1-15.5-8.3C38,7.4,22.6,14.3,9.1,20.4c-0.9,0.4,2,2.1,2.7,1.8
		c16-7.3,36.9-16.8,53.1-4.7c12.9,9.6,17.1,28.1,16.2,43.6c-0.3,4.8-1.1,9.7-2.8,14.2c-1.3,4.2-3.8,7.5-7.7,9.9
		c-2.1,3.9-5.2,6.1-9.3,6.8c-3.6,0.7-7.2,0.7-10.8,0.2c-3.7-0.6-7.6-1.4-11.1-2.8c-5.2-2.1-10.5-4.5-14.8-8.2
		c-2.9-2.5-5.6-5.3-7.3-8.7c-1.2-5.3-2.4-10.6-3.5-15.9c0.1-3.1,0.4-6.2,1-9.2c0.6-3.4,1.4-6.7,2.1-10c0.4-0.6,0.6-1.2,0.5-2
		c0.1-0.8,0.3-1.6,0.5-2.4c0.5-2.3,1-5.5,3.7-6.4C22.6,26.2,20,24.1,19.3,24.3z"/>
	<path opacity="0.1091" d="M21.2,20.1c-1,0.4-1.5,0.6-2.3,1.4c-1.1,1.2-1.8,2.8-2.3,4.4c-0.7,2.4-1.1,4.9-1.6,7.4
		c-0.5,2.3-1.2,4.6-1.7,6.9c-0.7,3.2-1.3,6.4-1.6,9.6c-0.5,4.9-0.2,9.8,0.9,14.7c3,12.1,14,20,25.1,24c9.2,3.3,20.3,6,29.7,1.9
		c13.4-5.9,17.1-22.9,17.1-36.1c0-7.4-1.1-14.7-3.2-21.7c-1.2-4-3-8.2-5.4-11.8c-2.7-4.1-6-7.7-10.2-10.4c-4.7-3-9.9-4.5-15.5-5
		C44.2,5,37.8,6.3,31.9,8c-7.2,2.1-14,5.2-20.9,8.2c-0.9,0.4,1.8,2.1,2.5,1.9c6.8-2.7,13.6-5.4,20.7-7c6.6-1.5,14.5-2,21.2,0
		c1.4,0.5,2.8,0.9,4.2,1.4c7.8,4.3,13.3,10.2,16.4,17.7c2.9,6.5,4.4,13.6,5,20.6c0.2,2.3,0.4,4.6,0.4,6.9c-2.3,8.5-4.6,17-6.9,25.5
		c-4.5,6.3-12.1,8.9-20,8.3c-5.6-0.4-10.9-1.8-16.2-3.7c-4.4-1.6-8.6-3.3-12.5-6c-3-2.1-5.5-4.6-7.7-7.5c-1.4-1.7-2.5-3.5-3.3-5.5
		c-0.9-4.6-1.7-9.1-2.6-13.7c-0.2-4.7,0.9-10,2-14.5c0.6-2.4,1.3-4.7,1.9-7c0.5-1.7,0.9-3.4,1.6-5.1c0.3-0.7,0.6-1.4,0.9-2.1
		c1-2.4,2.6-3.7,4.8-3.9C24.6,22.3,21.9,19.8,21.2,20.1z"/>
	<path opacity="0.1091" d="M17.5,21.5c-1.4,0.6-1.8,0.6-2.7,2c-1,1.6-1.5,3.4-1.9,5.2c-0.4,1.8-0.6,3.6-0.8,5.5
		c-0.3,2.7-1.1,5.1-1.7,7.8C8.8,49.9,7.9,57.9,10,65.8c1.3,4.9,4,9.3,7.4,13c5.7,6.1,13.6,10,21.5,12.5c3.9,1.2,8,2.1,12,2.5
		c4.7,0.4,9.4,0.1,13.7-1.7c3.4-1.4,6.3-3.6,8.6-6.4c6.9-8.1,8.9-19.5,8.7-29.8c-0.2-12.7-3.5-26-11.5-36.2
		C65.9,13.9,59.3,9.8,52,8.2c-4.5-1-9.2-1.1-13.8-0.6C27.5,8.8,17.4,13.3,7.6,17.7c-0.8,0.4,0.6,1.1,0.8,1.2
		c0.6,0.3,2.6,1.8,3.3,1.5c3.2-1.4,6.4-2.7,9.6-4c2-0.8,4-1.5,6.1-2.2c9.7-0.6,19.5-1.1,29.2-1.7c6.4,1.9,11.4,6.8,15.2,12.1
		c2.2,3.1,4.1,6.9,5.3,10.6c1.3,7.7,2.7,15.4,4,23c0,1.6-0.1,3.2-0.1,4.8c-0.1,6.9-3.2,12.6-9.4,17c-1.7,8-5.9,12.3-12.5,12.9
		c-5.3-0.5-10.5-1-15.8-1.5c-2.1-0.5-4.2-1.2-6.2-2.1c-6.9-2.7-13.5-6.6-18.2-12.5c-4.5-5.6-6.6-12.5-6.8-19.7
		c-0.1-4,0.4-7.8,1.1-11.8c0.3-1.7,0.6-3.3,0.9-5c0.7-2.1,1.3-4.2,1.9-6.4c0.5-2,1.2-3.9,2.1-5.8c0.8-1.8,1.3-2.9,3.5-3.4
		c1-0.2-1-1.6-1.1-1.7C19.8,22.6,18.4,21.1,17.5,21.5z"/>
</g>
<g>
	<path opacity="0.1091" d="M34.3,33.4c-2.4-2.7-4.8,0.7-5.8,2.8c-1.7,3.5-4.4,11.2,1.5,12.4c2.6,0.6,4.7-0.5,6.6-2.3
		c1.5-1.4,3.3-3.1,4.1-5.1c0.4-0.9,0.5-1.8,0.1-2.7c-0.7-1.6-1.9-2.2-3.5-2.1c-0.5,0-0.6,1.7-0.1,1.5c2.7-0.1,3.1,1.3,1.3,4.2
		c-0.8,0.8-1.6,1.6-2.2,2.5c-1.2,1.3-3.3,2.7-5.2,2.5c-2.4-0.2-2.8-2.2-2.6-4.2c0.1-1.6,0.4-3.2,1.1-4.7c0.5-2,1.8-3.2,3.9-3.4
		C33.7,35.2,34.5,33.7,34.3,33.4z"/>
	<path opacity="0.1091" d="M34.6,32.1c-3.4-3.7-6.3,3.7-7,5.8c-0.6,2-1.3,4.4-0.9,6.6c0.3,1.8,1.8,2.8,3.5,3.1
		c1.8,0.4,3.3,0.2,4.8-0.8c1.6-1,2.9-2.4,4.1-3.8c0.7-0.8,1.4-1.7,1.8-2.7c0.4-0.9,0.5-1.9,0.2-2.8c-0.6-1.7-2-2.3-3.7-2.2
		c-0.5,0-0.7,2.2-0.2,2c2.7-0.3,3.2,1,1.6,4c-0.3,0.4-0.6,0.8-0.9,1.2c-1.6,2.1-4.6,6.3-8,4c-2.8-1.8-1.4-6.8-0.3-9.1
		c0.2-0.4,2.6-5.5,3.6-3.1C33.5,34.8,35.1,32.6,34.6,32.1z"/>
	<path opacity="0.1091" d="M34.8,33.1c-2.4-2.5-4.7,1-5.7,3c-1.2,2.4-2.1,5.2-2.1,7.9c0,1.1,0.2,2.1,1,3c1.4,1.5,3.6,1.9,5.5,1.5
		c2.9-0.6,5.4-3.6,7-6c0.8-1.2,1.4-2.6,0.8-4.1c-0.6-1.6-2.1-2.2-3.6-2.1c-0.5,0-0.7,1.9-0.3,1.7c1.6-0.3,2.3,0.3,2.1,1.7
		c-0.9,1.6-1.9,3.1-3,4.5c-1.2,1.3-2.8,2.5-4.5,2.6c-3.5,0.4-3.5-4.1-2.9-6.6c0.2-0.8,3.1-8.3,4.6-5.4
		C33.9,35.4,35.2,33.5,34.8,33.1z"/>
	<path opacity="0.1091" d="M35.7,33.8c-0.8-0.9-1.8-1.4-3-0.9c-2.6,1-3.7,4-4.5,6.4c-1.1,3.3-2.2,8.2,1.9,10c4.7,2,9-2.3,11.4-6
		c1.1-1.7,1.6-3.7,0-5.4c-0.9-1-1.7-1.3-3.1-1.1c-0.3,0-0.3,0.6,0.1,0.6c0.7,0.4,1.3,0.8,2,1.1c-0.1,2.4-1,4.5-2.4,6.1
		c-1,1.3-2.2,2.4-3.7,3.1c-0.9,0.4-1.7,0.6-2.7,0.6c-4.1-0.7-4.9-3.2-2.3-7.3c-1-5.1,0.9-7.3,5.7-6.6C35.3,34.9,35.9,34,35.7,33.8z"
		/>
	<path opacity="0.1091" d="M35.6,33c-3.5-3.8-7,4.8-7.5,6.8c-0.8,3-1.6,7.2,2.1,8.5c1.5,0.6,3.3,0.6,4.8,0.1
		c1.8-0.5,3.4-2.4,4.6-3.7c0.6-0.7,1.3-1.4,1.8-2.2c1-1.6,1.7-3.7,0.2-5.3c-1-1.1-1.8-1.2-3.3-1c-0.3,0-0.6,1.4-0.1,1.3
		c1.3-0.1,2,0.4,2.2,1.5c0.1,1.6-0.6,3-1.9,4.1c-1.3,1.8-2.7,3.4-4.8,4.2c-0.6,0.3-1.3,0.4-2,0.4c-2.5-0.3-3.7-1.5-3.7-3.8
		c0.1-3.1,1.2-6,3.1-8.7c1.1-1.6,2.2-1.7,3.4-0.4C34.8,35.1,36,33.4,35.6,33z"/>
	<path opacity="0.1091" d="M33.9,32c-0.6-0.8-0.7-1-1.8-1.1c-1.1-0.1-2,0.5-2.7,1.2c-2.4,2.7-3.8,7.2-3.8,10.9
		c0,1.5,0.4,2.8,1.7,3.7c1.3,1,3,1.3,4.6,1.2c2.2-0.2,4-1.7,5.5-3.3c1.2-1.2,2.7-2.8,3.3-4.4c0.5-1.3,0.5-2.7-0.4-3.9
		c-0.9-1.2-2-1.4-3.4-1.4c-0.4,0-0.3,1.4,0.1,1.3c-7.3,9.6-10.6,11.8-10.1,6.6c0.3-1.2,0.6-2.5,0.8-3.7c0.2-0.7,3.5-8.7,5.3-5.8
		C33.3,33.8,34.1,32.2,33.9,32z"/>
	<path opacity="0.1091" d="M33.8,33.1c-3.5-4.1-7,4.7-7.5,6.8c-0.6,2.2-1.3,5.4,0.5,7.2c1.6,1.6,4.4,2,6.4,1.1
		c1.5-0.6,2.6-1.7,3.7-2.7c1.5-1.4,3.7-3.8,3.8-6c0-0.7-0.4-1.5-0.9-2.1c-0.8-1-1.8-1.3-3.1-1.3c-0.4,0-0.3,1.4,0,1.3
		c2.9,1.5,3.6,3.1,2,4.8c-0.8,0.9-1.6,1.8-2.4,2.7c-1.6,1.5-4,2.9-6.3,2.2c-2.2-0.7-2.4-2.3-2.2-4.4c0.1-1.7,0.4-3.3,1.1-4.8
		c0.5-2.1,1.9-3.4,4.2-3.8C33.4,34.5,34,33.3,33.8,33.1z"/>
	<path opacity="0.1091" d="M34.7,33.9c-1.4-1.5-3.1-1.3-4.5,0.2c-1.6,1.6-2.7,4.5-3.2,6.6c-0.4,1.6-0.7,3.2-0.6,4.9
		c0.1,1.8,1.1,3.4,2.9,4c3.4,1.2,6.2-0.6,8.5-3c1.4-1.4,3.8-3.9,3.7-6.1c0-0.8-0.5-1.8-1-2.4c-0.9-1.1-1.7-1.3-3.1-1.2
		c-0.3,0-0.2,0.5,0.1,0.5c2.6,2.9,2.8,5.2,0.6,6.9c-0.5,0.5-0.9,1-1.4,1.5c-1.3,1.3-3.2,2.4-5.1,2.5c-0.6,0.1-1.2,0-1.8-0.2
		c-2-1.4-2.7-3.1-2.1-5.2c0.1-1.6,0.4-3.1,0.9-4.6c0.5-2.9,2.4-4.2,5.7-4C34.5,34.6,34.9,34.2,34.7,33.9z"/>
	<path opacity="0.1091" d="M35.6,31.7c-0.9-0.9-1.9-1.2-3.1-0.5c-0.4,0.2-1,0.8-1.4,1.1c-2.3,2.4-3.6,6.9-3.8,10.1
		c-0.2,2.4,0.4,4.3,2.8,5.2c4.3,1.5,7.5-1.6,10-4.7c1.2-1.4,2.6-3.2,2.2-5.1c-0.2-0.9-0.7-2-1.6-2.5c-0.9-0.5-1.3-0.4-2.3-0.3
		c-0.5,0.1-0.7,1.9-0.1,1.7c1.7-0.4,2.2,0.6,2.3,2.1c0.5,4.9-12.8,10.5-12.8,5c0-2.9,1.2-5.7,2.7-8.1c0.6-0.9,2.7-3.9,3.6-1.6
		C34.3,34.5,36,32.2,35.6,31.7z"/>
	<path opacity="0.1091" d="M34.1,33.7c-4.4-5.1-9.9,9.9-7.7,13.6c1.4,2.4,4.7,2.6,7.1,1.8c2-0.7,3.9-2.9,5.2-4.5
		c0.7-0.9,1.6-1.8,2-2.9c0.5-1.4,0.4-2.6-0.5-3.8c-0.9-1-1.8-1.3-3.1-1.3c-0.4,0-0.4,0.7,0,0.7c0.9,1.4,1.9,2.8,2.8,4.2
		c-0.3,0.4-0.6,0.9-0.9,1.3c-0.7,0.9-1.6,1.9-2.5,2.7c-1.6,1.5-4,2.9-6.3,2.2c-2.7-0.8-2.7-3.4-2.4-5.8c0.2-1.8,0.7-3.4,1.5-5.1
		c0.2-0.6,0.5-1.2,0.9-1.8c0.6-1.2,1.7-1.5,3.4-0.9C33.8,34.6,34.3,33.9,34.1,33.7z"/>
	<path opacity="0.1091" d="M35.2,31.2c-0.9-0.9-1.9-1.2-3.2-0.6c-0.6,0.3-1,0.8-1.4,1.2c-1,1.1-1.6,2.7-2.2,4.1
		c-0.9,2-1.6,4.6-1.6,6.8c0,2.4,0.7,3.8,3.1,4.7c4.3,1.7,7.6-1.7,10-4.8c1.2-1.5,2.7-3.6,2-5.6c-0.3-0.7-0.8-1.6-1.5-2
		c-0.9-0.5-1.3-0.5-2.4-0.4c-0.5,0-0.4,1.8-0.1,1.7c2.9-0.6,3.5,1.9,2.2,4.7c-0.4,0.7-0.9,1.4-1.4,2.1c-2.1,3.6-5.8,3.1-11-1.7
		c0.3-2.4,1.6-5.5,3.2-7.2c0.7-0.7,2.2-2.3,2.9-0.7C34,34,35.6,31.7,35.2,31.2z"/>
	<path opacity="0.1091" d="M33.6,32.4c-1.8-2.1-4.2-0.3-5.5,1.6c-1.5,2.3-2.5,5.5-2.7,8.1c-0.1,0.8-0.2,1.7,0,2.6
		c0.7,3.3,4.9,4.2,7.6,3.2c2.2-0.8,4.1-2.9,5.5-4.6c0.9-1.2,2.3-2.9,2.2-4.5c0-0.8-0.3-1.5-0.8-2.1c-0.9-1.1-2-1.3-3.4-1.3
		c-0.4,0-0.3,1.1,0.1,1c-4.2,12-7.1,14.7-8.7,8.2c-1.1-1.6-1.2-3.3-0.5-5c0.3-1.1,3.4-8.8,5.4-6.3C33.2,33.7,33.8,32.6,33.6,32.4z"
		/>
</g>
<g>
	<path opacity="0.1091" d="M55.6,41.6c-1.9,0.4-3,1-4.2,2.8c-0.9,1.2-1.7,2.8-2,4.3c-0.5,2.4,1.6,4.1,3.9,4c2.8-0.1,5.5-2,7.3-4.1
		c0.6-0.8,1.1-1.5,1.3-2.5c0.3-1.7-1.2-2.6-2.7-2.6c-0.5,0-0.5,1.7,0,1.5c0.7,1.5,0.5,2.7-0.7,3.4c-0.8,0.9-1.8,1.5-3,1.9
		c-0.8,0.2-1.5,0.3-2.3,0.5c-0.9,0-1.3-0.5-1.3-1.4c-0.5-0.5-0.5-1-0.1-1.4c0.3-0.4,0.6-0.9,0.8-1.3c1.1-1.9,1.7-3.1,4.2-3.4
		C57.3,43.1,56,41.5,55.6,41.6z"/>
	<path opacity="0.1091" d="M55.6,40.5c-1.9,0.4-2.9,1.1-4,2.9c-0.8,1.2-1.6,2.8-1.8,4.3c-0.4,2.3,1.6,4.2,3.8,4.1
		c2-0.1,3.6-0.9,5.2-2.1c1.1-0.8,2.9-2.4,3.4-3.9c0.3-0.8,0.3-1.5-0.1-2.2c-0.6-1.1-1.4-1.2-2.6-1.2c-0.6,0-0.6,2.1-0.1,1.9
		c0.5,0.2,1,0.5,1.5,0.7c-1.7,1.7-3.4,3.4-5.1,5.2c-1.2,0-2.4-0.1-3.5-0.1c-1-1.2-1.2-2.2-0.4-3.1c0.4-0.7,1-1.4,1.4-2
		c1-1.6,2-2.3,4-2.6C57.7,42.4,56.2,40.4,55.6,40.5z"/>
	<path opacity="0.1091" d="M56.2,41.5c-1.4,0.3-1.9,0.5-3,1.4c-1.3,1.1-2.1,2.9-2.7,4.5c-0.3,0.7-0.6,1.5-0.5,2.3
		c0.3,1.8,2.2,2.8,3.8,2.8c2.5,0,4.6-1.4,6.3-3.1c1.1-1,2.2-2,2.3-3.6c0.2-1.8-1.3-2.6-2.8-2.5c-0.6,0.1-0.6,1.9-0.2,1.7
		c0.4,0.2,0.7,0.4,1.1,0.6c-0.4,1-1,1.8-1.8,2.5c-0.9,1-5,4.1-6.3,2.3c-0.3-0.8-0.5-1.6-0.8-2.4c0.1-0.2,0.3-0.5,0.4-0.7
		c1.3-2.1,1.9-4,5-4.5C57.8,42.9,56.6,41.4,56.2,41.5z"/>
	<path opacity="0.1091" d="M56.5,41.8c-1.4,0.4-2,0.6-3.1,1.5c-1.3,1.2-2.3,3.2-2.8,4.9c-0.8,2.2-0.1,4,2,5c2.4,1.1,5.4-0.2,7.3-1.7
		c1.1-0.9,3.1-2.5,3.5-4.1c0.2-0.9,0.2-1.5-0.4-2.3c-0.7-1-1.4-1.2-2.6-1.1c-0.3,0-0.2,0.6,0.1,0.6c1.1,2.6,0.6,4.6-1.7,5.9
		c-1.2,0.8-2.4,1.5-3.8,2c-2.4,0.6-3.7-0.8-4.1-4c0.7-2.8,2.5-4.8,5.4-6.2C56.7,42.2,56.8,41.7,56.5,41.8z"/>
	<path opacity="0.1091" d="M56.8,41.3c-1.5,0.4-2.6,0.8-3.6,2.1c-1,1.2-1.7,2.5-2.3,3.9c-0.5,1.2-0.8,2.6,0,3.7
		c0.5,0.7,1.5,1.5,2.4,1.7c1.3,0.2,2.7,0,3.9-0.5c2-0.8,4.4-2.7,5.5-4.5c0.6-1,1-2.2,0.3-3.3c-0.7-1.1-1.6-1.2-2.7-1
		c-0.3,0-0.5,1.4,0,1.2c0.3,0,0.6,0.1,0.9,0.1c0.5,0.8,0.4,1.5-0.2,2.2c-1,1.8-2.7,3.4-4.6,4.2c-1,0.4-1.9,0.7-3,0.6
		c-2.4-3.2-2.2-5.6,0.4-7.5c0.7-1.4,1.7-2.1,3.2-2.1C57.7,42,57.1,41.2,56.8,41.3z"/>
	<path opacity="0.1091" d="M54.6,40c-1.6,0.4-1.2,0.1-2.2,0.9c-1.3,1-2.1,2.3-2.7,3.8c-0.5,1.1-1.2,2.7-1,4c0.7,3.2,4.4,3.8,7,2.6
		c1.8-0.8,3.7-2.2,5-3.8c0.4-0.5,1-1.4,1.1-2c0.2-0.7,0.2-1.5-0.1-2.2C61.1,42.2,60,42,58.9,42c-0.3,0-0.1,1.3,0.3,1.2
		c-2.6,2.4-5.3,4.8-7.9,7.2c-0.2-1.1-0.4-2.2-0.7-3.3c0.3-0.5,0.6-0.9,0.9-1.4c1.5-2,1.9-3.4,4.8-3.8C56.8,42,55.2,39.9,54.6,40z"/>
	<path opacity="0.1091" d="M54.9,41.2c-2,0.4-3,1-4.2,2.8c-0.9,1.3-1.7,3-2,4.6c-0.4,2.9,2.7,4.3,5.2,3.8c2.4-0.5,4.8-2.2,6.3-4
		c0.7-0.8,1.6-1.9,1.5-3.1c-0.1-1.6-1.5-2.2-2.9-2.2c-0.4,0-0.2,1.4,0.1,1.3c1.6,1.3,1.9,2.3,0.9,3.1c-0.7,0.8-1.5,1.4-2.4,2.1
		c-1.3,0.8-4.9,2.5-5.9,0.6c-0.5-0.4-0.6-0.9-0.1-1.6c0-0.8,0.3-1.6,0.8-2.2c1.1-1.8,1.7-3,4.2-3.4C56.8,43,55.3,41.1,54.9,41.2z"/>
	<path opacity="0.1091" d="M55.6,42.3c-1.1,0.3-2,0.5-2.9,1.4c-0.4,0.4-0.9,1-1.1,1.4c-0.7,1-1.2,2.2-1.7,3.3
		c-0.5,1.3-0.7,2.5,0,3.7c1.1,1.9,3.5,2.1,5.4,1.5c2.5-0.8,5-2.6,6.4-4.8c0.4-0.6,0.8-1.5,0.7-2.2c-0.2-1.5-1.5-2.4-2.9-2.3
		c-0.3,0-0.3,0.5-0.1,0.5c1.8,1.7,2.1,3,0.8,3.9c-0.8,0.7-1.6,1.4-2.4,2.1c-1.2,0.7-2.8,1.6-4.3,1.6c-1.5-0.1-3.2-0.8-2.8-3
		c0.1-0.3,0.2-0.6,0.3-0.9c0.6-3.2,2.2-5,4.8-5.3C56.4,42.9,55.8,42.2,55.6,42.3z"/>
	<path opacity="0.1091" d="M56.6,40.3c-1.6,0.3-1.8,0.3-3,1.4c-1.2,1.2-2.2,3-2.8,4.5c-0.6,1.4-0.9,2.6,0.1,4
		c0.5,0.8,1.5,1.5,2.5,1.7c3.5,0.8,7.6-2.6,9.3-5.1c0.7-1,1.1-2.3,0.5-3.4c-0.7-1.2-1.5-1.3-2.7-1.1c-0.5,0.1-0.3,1.7-0.1,1.7
		c1-0.4,1.5,0,1.5,1.1c0.1,1.2-0.4,2.2-1.4,2.9c-0.9,1.3-2.1,2.3-3.6,3c-6-4-5.8-7.1,0.7-9.2C58,41.6,56.9,40.3,56.6,40.3z"/>
	<path opacity="0.1091" d="M55.1,42c-1.6,0.3-2.5,0.8-3.6,2.1c-1.2,1.4-2.2,3.3-2.6,5.2c-0.3,1.4,0.3,2.8,1.6,3.6
		c2.9,1.8,6.7-0.7,8.8-2.5c1.3-1.2,3.5-3.2,2.3-5.1c-0.6-1.1-1.4-1.4-2.6-1.3c-0.4,0-0.3,0.8,0.1,0.7c1.9,0.9,2.4,1.9,1.5,2.9
		c-0.3,0.5-0.7,0.9-1.1,1.2c-1.3,1.1-4.5,3.6-6.9,2.9c-1.6-0.4-2.1-2.1-1.3-3.5c1.1-2.1,1.7-4.2,4.7-4.8C56.5,43.1,55.5,42,55.1,42z
		"/>
	<path opacity="0.1091" d="M56.1,39.8c-0.5,0.1-1.2,0.2-1.7,0.4c-1,0.5-1.9,1.6-2.5,2.5c-0.9,1.4-2.4,3.9-2.1,5.7
		c0.1,1,1.1,2.1,1.8,2.6c1.6,1.2,3.6,0.7,5.4-0.1c1.7-0.9,3.3-2.1,4.5-3.5c0.5-0.6,1.1-1.3,1.3-2c0.2-0.8,0.3-1.7-0.1-2.4
		c-0.6-1.1-1.5-1.4-2.7-1.3c-0.4,0-0.3,1.7,0.1,1.6c2.1,1,2.5,2.2,1.2,3.8c-4.2,5.9-7.6,5.9-10.4,0.1c0.3-0.8,0.8-1.5,1.3-2.2
		c1-1.9,2.7-3.1,5-3.5C57.7,41.4,56.4,39.8,56.1,39.8z"/>
	<path opacity="0.1091" d="M54.4,40.5c-1,0.2-1.6,0.3-2.4,0.9c-1.3,0.9-2.2,2.3-2.8,3.8c-0.5,1.1-1.3,2.9-1,4.1
		c1.3,4.6,7,2.9,9.7,0.9c1.6-1.2,4-3.2,3.8-5.6c-0.1-1.5-1.8-2-3.1-2c-0.5,0-0.2,1,0.2,0.9c-5,8.9-7.8,10.2-8.4,4.1
		c0.3-0.4,0.6-0.8,0.9-1.2c1.4-2,1.8-3.5,4.7-3.9C56.5,42.4,54.8,40.4,54.4,40.5z"/>
</g>
<g>
	<path opacity="0.1091" d="M79.2,71.1c-1.5,1.8-3.5,3-5.8,3.8c-1.4,0.5-2.9,0.8-4.3,1c-9.6,1.6-20.7,3.9-30.2,0.9
		c-4.8-1.6-9.1-4.2-12.7-7.8c-2-2-3.7-4.2-5.1-6.7c-1.6-2.7-2.9-5.5-3.8-8.5c-0.2-0.4-0.4-0.1-0.6,0.1c-0.2,0.3,0.1,1.6,0.2,2
		c1.1,3.1,2.5,5.9,4.3,8.7c0.9,1.2,1.8,2.4,2.7,3.6c2.6,3.2,6,5.8,9.6,7.8c5.8,3.3,12.7,4.2,19.3,3.9c6.7-0.3,13.5-1.5,20-3.2
		c1.6-0.4,3.1-1,4.6-1.6c2-0.9,3.5-2.2,5.2-3.7c0.5-0.5-0.9-0.4-0.9-0.4C81.1,70.8,79.7,70.7,79.2,71.1z"/>
	<path opacity="0.1091" d="M79.8,69.7c-4,3.8-7.6,4.4-12.5,5.1c-3.2,0.6-6.4,1.1-9.7,1.5c-4.5,0.8-8.9,0.5-13.2-0.9
		c-4.4,0.3-8.3-0.8-11.8-3.1c-2.2-1.4-4.2-3-6.1-4.9c-2-2-3.7-4.3-5.1-6.7c-1.6-2.7-2.8-5.5-3.7-8.5c-0.2-0.6-0.4-0.4-0.6,0.1
		c-0.2,0.6,0,2.4,0.3,3c1.2,3,2.6,5.9,4.4,8.5c0.9,1.2,1.8,2.3,2.7,3.5c2.7,3.1,6,5.6,9.6,7.6c4.4,2.4,9.4,3.5,14.3,3.7
		c7.6,0.4,15-1.1,22.3-2.7c2.2-0.5,4.4-1.1,6.4-2c2-0.9,3.5-2.2,5.1-3.7c0.4-0.4-0.6-0.5-0.7-0.5C81.2,69.4,80.2,69.4,79.8,69.7z"/>
	<path opacity="0.1091" d="M80.3,70.9c-2,1.3-3.9,2.5-5.9,3.8c-0.7,0.2-1.4,0.4-2.2,0.6c-2.2,0.5-4.5,0.8-6.7,1.1
		c-6.8,1.1-14.2,2.4-21.1,1.2c-5.3-0.9-10.2-2.9-14.4-6.2c-2.7-2.1-5-4.7-6.9-7.6c-2.2-3.3-3.6-6.6-5-10.3c-0.2-0.5-0.4-0.2-0.6,0.1
		c-0.2,0.4,0,1.9,0.2,2.2c1.9,4.4,3.9,8.4,7,12c2.6,3,5.9,5.8,9.5,7.7c6.7,3.5,13.9,4.3,21.3,3.8c5.5-0.4,11.1-1.4,16.5-2.7
		c2.3-0.5,4.6-1.2,6.7-2.3c1.7-0.9,2.7-1.9,4.1-3.2c0.4-0.4-0.6-0.5-0.7-0.5C81.7,70.5,80.7,70.5,80.3,70.9z"/>
	<path opacity="0.1091" d="M80.7,72c-1.7,1.8-3.7,3-6.1,3.8c-1.5,0.4-2.9,0.7-4.4,0.9c-5.4,0.7-10.8,1.8-16.3,2
		c-5.8,0.3-11.8-0.3-17.1-2.8c-2.3-1.1-4.3-2.4-6.3-4c-5.6-5-9.4-10.9-11.4-17.8c-0.2-0.4-0.8-0.1-0.6,0.4c2,5.6,4.4,10.8,8.6,15.1
		c4.7,4.8,10.6,8.4,17.4,9.4c8.7,1.3,17.3-0.3,25.9-1.6c2-0.3,3.9-0.6,5.7-1.4c2.1-0.8,3.6-2,5.3-3.5C81.9,72.1,81.1,71.6,80.7,72z"
		/>
	<path opacity="0.1091" d="M81,70.8c-3.2,3.4-7.4,5.1-12.6,5c-3.1,0.5-6.2,1-9.4,1.4c-17.1,1.9-31.4-1.5-39.9-24
		c-0.1-0.4-0.4-0.1-0.6,0c-0.2,0.3,0,1.3,0.1,1.6c1.7,4.2,3.5,8.1,6.4,11.6c0.9,1.1,1.9,2.2,3,3.2c4.3,4.1,9.4,6.8,15.2,8.1
		c9.3,2,18.8,0.1,28-1.5c1.5-0.3,2.9-0.5,4.4-1c2.6-0.9,4.3-2.1,6.3-3.9C82.5,70.8,81.4,70.5,81,70.8z"/>
	<path opacity="0.1091" d="M78.3,69.4c-1.6,1.8-3.5,3.1-5.9,3.7c-1.4,0.4-2.9,0.7-4.4,0.9c-5.5,0.8-11.1,1.9-16.7,2
		c-10.6,0.3-19.1-2.2-26.1-9.5c-4.2-4.4-6.6-9.5-8.7-15.2c-0.2-0.5-0.4-0.2-0.6,0.1c-0.3,0.4,0.1,2,0.3,2.5c1.1,3.1,2.6,6,4.3,8.7
		c0.9,1.2,1.8,2.4,2.7,3.6c2.6,3.2,6,5.7,9.6,7.8c4.4,2.5,9.4,3.6,14.4,3.8c7.8,0.4,15.8-1.1,23.4-2.9c1.8-0.4,3.6-1,5.3-1.8
		c2-0.9,3.5-2.1,5.1-3.7c0.4-0.4-0.7-0.5-0.7-0.5C79.8,69.1,78.7,69,78.3,69.4z"/>
	<path opacity="0.1091" d="M78.2,70.8c-2.1,2.3-4.7,3.8-7.9,4.3c-1.4,0.3-2.9,0.5-4.4,0.7c-4.8,0.7-9.5,1.7-14.4,1.8
		c-8.9,0.3-16.4-1.2-23.2-6.6c-2.1-1.7-4-3.6-5.6-5.7c-2.8-3.6-4.8-7.7-6.2-12.1c-0.2-0.4-0.4-0.1-0.6,0.1c-0.2,0.3,0.1,1.6,0.2,1.9
		c1.1,3.1,2.5,6,4.3,8.8c0.9,1.2,1.8,2.4,2.7,3.6c2.6,3.2,6.1,6,9.7,7.9c5.2,2.8,11.1,4.1,17,4c4.9,0,9.7-0.7,14.4-1.6
		c3-0.6,6.1-1.1,9-2c0.8-0.3,1.6-0.5,2.4-0.9c2.5-1,4.3-2.3,6.3-4.2c0.5-0.5-1-0.4-1-0.4C80.3,70.5,78.7,70.3,78.2,70.8z"/>
	<path opacity="0.1091" d="M79.4,72.4c-1.6,1.8-3.6,3-5.9,3.7c-1.4,0.4-2.9,0.7-4.4,0.9c-4.7,0.7-9.3,1.5-14,1.9
		c-8,0.7-15.7,0.1-22.8-4.3c-7.6-4.8-11.7-12-14.8-20.4c-0.1-0.4-0.8-0.1-0.6,0.4c1.1,3.1,2.1,5.7,3.7,8.6c1.4,2.6,3.3,5,5.3,7.1
		c4.2,4.5,9.8,7.6,15.7,8.9c9.3,2,18.5,0.3,27.7-1.2c2.4-0.4,4.8-0.9,7-1.8c2.2-0.9,3.6-2.1,5.3-3.7c0.4-0.4-0.6-0.5-0.6-0.5
		C80.6,72.1,79.8,72.1,79.4,72.4z"/>
	<path opacity="0.1091" d="M80.7,69.4c-0.6,0.6-1.3,1.2-1.9,1.7c-1.2,1-2.6,1.6-4.1,2c-1.8,0.6-3.5,1-5.3,1.2
		c-7.4,1-14.6,2.5-22.1,1.9c-6.1-0.5-11.8-2.6-16.6-6.5c-2.1-1.7-4-3.7-5.6-5.8c-2.9-3.6-4.5-7.9-6.1-12.2c-0.2-0.6-0.4-0.2-0.6,0.1
		c-0.3,0.4,0,2.1,0.2,2.6c1.6,3.6,3.2,6.9,5.6,10.1c2.1,2.7,4.5,5.2,7.3,7.2c5.6,4,12.3,6,19.2,6c6.7,0,13.2-1.3,19.8-2.4
		c1.8-0.3,3.6-0.7,5.3-1.3c2.4-0.9,4.1-2.2,6-3.9C82.1,69.4,81,69.1,80.7,69.4z"/>
	<path opacity="0.1091" d="M78.5,71.9c-1.5,1.8-3.5,3-5.7,3.7c-1.4,0.4-2.8,0.8-4.3,1c-3.9,0.6-7.7,1.3-11.6,1.7
		c-4.6,0.5-9.4,0.8-14,0.1c-2.8-0.4-5.4-1.2-7.9-2.3c-9.3-5.3-15.3-12.6-18.1-21.9c-0.3-0.8-0.8,0.1-0.6,0.7c1.5,3.9,3,7.4,5.3,10.8
		c1.4,2,2.3,3.3,4.2,5.1c5.1,5,11.5,8.1,18.5,9.1c8.1,1.1,16.2-0.4,24.1-1.9c2.4-0.5,4.7-1,7-1.8c2.6-0.9,4.5-2.4,6.5-4.2
		c0.5-0.5-0.9-0.4-0.9-0.4C80.3,71.5,79,71.4,78.5,71.9z"/>
	<path opacity="0.1091" d="M80,68.8c-1.6,1.5-2.9,2.6-4.9,3.4c-1.7,0.7-3.5,1.1-5.4,1.4c-6.8,1-14,2.6-20.9,2.2
		c-3.1-0.2-6.2-0.6-9.2-1.5c-2.9-0.9-5.7-2.4-8.2-4.2c-2.7-2-5.2-4.3-7.2-7c-2.8-3.7-4.5-7.9-6.1-12.2c-0.2-0.5-0.4-0.3-0.6,0.1
		c-0.2,0.6,0,2.3,0.3,2.9c1.6,3.7,3.2,7,5.6,10.2c2.1,2.7,4.5,5.2,7.4,7.2c5.6,4,12.4,5.9,19.3,5.9c6.7,0,13.2-1.3,19.7-2.5
		c1.8-0.3,3.6-0.7,5.3-1.4c2.3-0.9,4-2.2,5.8-3.9C81.6,68.8,80.3,68.5,80,68.8z"/>
	<path opacity="0.1091" d="M77.5,70.1c-2.1,2.3-4.7,3.8-8,4.3c-1.5,0.3-2.9,0.5-4.4,0.6c-3.3,0.4-6.4,1-9.7,1.4
		c-4.4,0.7-8.8,0.4-13.1-1c-4.3,0.3-8.2-0.8-11.6-3.1c-7.5-4.7-11.6-11.7-14.7-20c-0.2-0.4-0.4-0.1-0.6,0.1
		c-0.2,0.3,0.1,1.6,0.2,1.9c1.1,3.1,2.5,6.1,4.3,8.8c0.9,1.2,1.8,2.4,2.7,3.6c2.6,3.2,6,6,9.6,8c5.1,2.8,11.1,4.1,16.9,4.1
		c4.8,0,9.6-0.7,14.4-1.6c3-0.6,6-1.1,9-2c0.8-0.2,1.6-0.5,2.4-0.8c2.5-1,4.2-2.3,6.2-4.1c0.5-0.5-0.9-0.5-0.9-0.5
		C79.5,69.7,78,69.6,77.5,70.1z"/>
</g>
</svg>
