<?xml version="1.0" encoding="utf-8"?>
<!-- Generator: Adobe Illustrator 18.1.1, SVG Export Plug-In . SVG Version: 6.00 Build 0)  -->
<!DOCTYPE svg PUBLIC "-//W3C//DTD SVG 1.1//EN" "http://www.w3.org/Graphics/SVG/1.1/DTD/svg11.dtd">
<svg version="1.1" id="Ebene_1" xmlns="http://www.w3.org/2000/svg" xmlns:xlink="http://www.w3.org/1999/xlink" x="0px" y="0px"
	 viewBox="0 0 100 100" enable-background="new 0 0 100 100" xml:space="preserve">
<g>
	<path opacity="0.1091" d="M20.2,23.4c-1.5,0.6-1.3,0.4-2.2,1.4c-1.2,1.2-1.9,2.8-2.4,4.4c-1,3-1.2,6.3-1.9,9.4
		c-1.7,7.2-3.3,14.2-2.9,21.6c0.3,4.8,1.3,9.1,3.6,13.3C21,85.8,35.5,91.7,48.5,94c7.4,1.3,16.2,1,22.3-4.1
		C80,82,82.7,69.4,82.7,57.7c0-13.9-3.6-28.8-13.5-39.1C62.9,12,53.6,9.1,44.6,9.3C32.5,9.6,21,14.7,10,19.6
		c-0.9,0.4,2.6,2.6,3.4,2.3c6.5-2.8,13-5.5,19.8-7.4c13.5-3.6,26.1-2.3,34.7,6.9c2.2,2.4,4.1,5,5.6,7.9c3.3,6.1,5,13,5.9,19.9
		c0.5,3.9,0.6,7.8,0.4,11.7c-0.1,4.5-1.2,8.8-3.4,12.9C74.9,83.2,68.9,89,58.3,91c-6.1,0.4-12.3-0.9-18-2.9
		c-3.8-1.9-7.7-3.8-11.5-5.7c-1.7-1-3.2-2.2-4.6-3.6c-1.4-1.2-2.7-2.6-3.9-4.1c-1.8-6.4-3.7-12.7-5.5-19.1c0-2.3,0.3-4.6,0.7-6.9
		c0.3-2.4,0.8-4.8,1.3-7.1c0.4-1.6,0.7-3.2,1.1-4.8c0.5-0.6,0.8-1.4,0.8-2.3c0.4-1.7,0.8-3.1,1.4-4.7c0.7-1.8,1-3,3.2-3.5
		C24.2,26,21,23.1,20.2,23.4z"/>
	<path opacity="0.1091" d="M20.3,21.4c-1.3,0.6-1.2,0.4-2,1.3c-1.1,1.3-1.7,2.9-2.1,4.5c-0.8,3-1,6.2-1.8,9.2
		c-1.9,7-3.2,14.4-2.8,21.7c0.4,7.6,3.1,14.4,8.3,19.9c4.7,5,10.6,8.2,16.9,10.7c6.3,2.5,13.3,4.1,20.1,4.1c5,0,10.7-1.5,14.5-4.8
		c3.4-2.9,6.2-6.6,8-10.8c3.3-7.6,4.4-16,4.1-24.3c-0.5-10.6-2.8-21.4-8.5-30.5C69.4,13.8,60.1,7.7,49.6,7.1
		C35.8,6.2,22.8,12,10.4,17.5c-0.7,0.3,0.4,1,0.6,1.2c0.5,0.3,2.3,1.7,3,1.4c9.1-3.7,18.6-7.7,28.6-8.2c3.4-0.2,6.8-0.1,10.1,0.6
		c2.1,0.4,4.1,1,6.1,1.8c5.1,5.3,10.3,10.5,15.4,15.8c1.9,3.4,2.9,7.4,3.8,11.2c2.4,9.7,2.6,22.8-0.2,31.4c-0.5,1.4-1,2.7-1.4,4.1
		c-3.2,7.8-8.2,12.3-15,13.5c-3.6,0.8-7.2,0.7-10.9,0.1c-14.4-2.1-30.6-9.6-35-24.6c-2.5-8.3-1.3-17.2,0.7-25.5
		c0.6-2.4,1.6-6.1,2.6-8.8c1-2.7,2-6.1,5.3-6.8c1-0.2-0.8-1.5-1-1.6C22.5,22.4,21.2,21.1,20.3,21.4z"/>
	<path opacity="0.1091" d="M21.5,23.2c-1.5,0.6-1.3,0.4-2.2,1.4c-1.2,1.2-1.8,2.7-2.3,4.3c-1,3-1.2,6.2-1.9,9.2
		c-3.2,12.7-5.3,27.1,2.8,38.4c5.3,7.4,13.4,11.7,21.9,14.7c5.7,2,11.9,3.5,17.9,3.3c3.8-0.1,7.7-0.7,11.1-2.6
		C83,83.7,85,64.5,83.5,49.9c-1-10.2-4.1-20.7-10.6-28.7c-2.5-3.1-5.6-5.9-9-7.9c-4.8-2.8-10.4-4-15.8-4.1
		c-12.9-0.4-25.2,5-36.7,10.2c-0.9,0.4,2.1,2.3,2.8,2c6.6-2.8,13.2-5.5,20.1-7.2c5.5-1.6,11-1.3,16.6,1.1c6.2-1.2,11.2,0.2,15,4.1
		c2.4,2.2,4.4,4.5,6.2,7.2c3.7,5.6,5.7,12,6.8,18.6c1.2,6.8,1.3,13.7,0.4,20.6c-0.6,4-1.7,8.6-3.6,12.2c-1.6,3-3.4,5.7-5.9,7.9
		c-4.7,4.1-11.5,5.3-17.6,4.5c-3.1-0.4-6.1-1.1-9-1.9c-1.9-0.5-3.8-1.2-5.6-2.1C30.5,79,23.3,71.8,16.2,64.5
		c-1.3-4.1-1.1-9.5-0.6-13.6c0.5-4.2,1.3-8.3,2.4-12.3c0.5-2,0.9-3.9,1.4-5.9c0.7-2.7,1.5-6.2,4.6-7.1C25,25.4,22.2,22.9,21.5,23.2z
		"/>
	<path opacity="0.1091" d="M22,23.9c-1.8,1-2.9,2.1-3.8,4c-1,2.4-1.5,5-1.8,7.6c-0.6,4.7-1.9,9.3-2.6,14c-1,6.3-1.3,12.9,0.4,19.1
		c2.8,10.2,10.9,17.7,20.3,22c4.1,1.9,8.4,3.4,12.8,4.5c5.1,1.2,10.6,2.1,15.8,1.3c4.9-0.8,9.1-2.8,12.6-6.3c5.1-5.2,7.6-12,9-19
		c1.3-6.4,1.2-13.3,0.5-19.7c-0.7-6.8-2.3-13.6-5.2-19.9c-2.9-6.4-7.1-12-12.8-16.1c-4.5-3.2-10-5-15.6-5.5
		c-13.9-1.4-27.5,4.8-39.9,10.4c-0.4,0.2-0.5,1.2,0,1c9.6-4.5,19.6-9.1,30.2-10.4c10.6-1.3,21.8,1.6,29,9.9
		c5.1,5.9,8.1,12.8,9.8,20.3c2.7,11.9,2.6,25.3-2.3,36.6c-1.4,3.1-3.2,6-5.6,8.6c-1.7,1.8-3.7,3.2-6,4.3c-4.4,0.6-8.9,1.1-13.3,1.7
		C50.2,92,46,91,42.7,90c-4.6-1.4-8.7-3.7-12.5-6.8c-4.8-1.6-8.4-4.4-11-8.4c-2.3-3.4-3.8-7.6-4.4-11.6c-0.1-1.6-0.3-3.1-0.4-4.7
		c0.2-6.4,1-12.7,2.6-18.9c0.8-4.8-0.4-11.8,4.8-14.7C22.4,24.7,22.5,23.6,22,23.9z"/>
	<path opacity="0.1091" d="M22.4,22.9c-1.5,0.7-2.4,1.4-3.2,2.9c-1.3,2.2-1.8,4.7-2.3,7.2c-1.8,9.7-4.8,19.6-3.5,29.6
		c0.9,6.6,3.7,12.6,8.3,17.4c4.7,4.9,10.7,8.2,17.1,10.7c5.8,2.2,12,3.8,18.2,4.1c3.3,0.1,6.7-0.1,9.8-1.1C80,89.4,85,74.5,85.7,62
		c0.6-10.8-1.1-22.2-5.6-32.1c-2.6-5.6-6.3-10.8-11.2-14.6c-4.3-3.3-9.3-5.2-14.6-6.1C39.6,7,25.5,13.1,12.5,18.9
		c-1,0.4,0.2,1.5,0.8,1.3c9.6-4.2,19.6-8.4,30.1-9.1c5.2-0.3,10.3,0.3,15.2,2.1c2.3,0.7,4.4,1.7,6.4,3c1.9,1.5,3.7,3.2,5.4,5
		c6.2,7,9.5,16.7,10.6,25.9c0.2,4.7,0.3,9.3,0.5,14c-0.2,3-0.7,5.9-1.3,8.9c-1.2,4.8-3,9.2-6,13.1c-1.1,1.7-2.5,3.1-4.1,4.3
		c-5.1,3.1-10.5,4.3-16.1,3.7c-3.6-0.3-7.5-1.1-11-2.1c-9-2.7-18.4-7.3-23.7-15.4c-2.3-3.6-3.6-7.6-4.2-11.8
		c-1.3-8.4,1.1-16.7,2.7-24.8c0.3-1.3,0.4-2.6,0.6-3.9c0.2-1.4,0.6-2.7,1-4c0.5-2.6,1.9-4.2,4.1-4.8C24.3,23.9,23,22.6,22.4,22.9z"
		/>
	<path opacity="0.1091" d="M18.2,20.5c-0.9,0.4-1.4,0.6-2,1.4c-0.9,1.1-1.4,2.3-1.8,3.7c-0.9,3-1.1,6.1-1.7,9.2
		C11.5,40.9,9.9,46.7,9.6,53c-0.3,7.1,0.9,13.8,4.4,20c3.3,5.8,8.9,10.2,14.7,13.2c4.8,2.5,9.7,4.3,14.9,5.6
		c8.4,2,17.6,2.5,25.1-2.4c8.1-5.3,11.8-14.9,13-24.2c1-7.4,0.7-15.1-0.7-22.4c-1.2-6.5-3.2-12.9-6.5-18.6
		c-3.1-5.4-7.4-10.3-12.9-13.5c-4.9-2.8-10.5-4.1-16.1-4.3C32.5,5.8,20,11.4,8.3,16.7c-0.8,0.4,0.5,1.1,0.7,1.2
		c0.5,0.3,2.5,1.8,3.2,1.5c10.4-4.4,21.3-9.1,32.7-9c1.4,0,2.7,0.1,4.1,0.1c2.8,0.2,5.6,1,8.2,2.2c2.6,0.5,4.9,1.7,6.9,3.5
		c1,0.8,1.9,1.6,2.9,2.5c5.7,5.3,9.4,13.1,11.3,20.5c2.3,8.4,3.3,17.1,2.4,25.8c-0.4,3.9-1.2,7.8-2.6,11.5
		c-15.6,14.3-30.4,18-44.5,11.1c-2.2-0.9-4.3-2-6.3-3.3c-6.8-4.5-11.9-10.5-14.1-18.4c-2.3-8.4-1.2-17.5,0.9-25.9
		c0.6-2.5,1.7-6.2,2.7-8.9c1-2.7,2.1-6.4,5.4-7.1c1-0.2-0.9-1.6-1.1-1.7C20.6,21.7,19.1,20.1,18.2,20.5z"/>
	<path opacity="0.1091" d="M18.8,22.7c-1,0.4-1.6,0.6-2.3,1.4c-1.2,1.2-1.9,2.9-2.4,4.6c-1.1,3.9-1.4,8-2.3,12
		C9.3,50.8,8,61.4,12.2,71.3C15,77.9,20.8,83,26.9,86.4c5.1,2.9,10.9,5.1,16.5,6.4c5.7,1.3,11.6,2.1,17.4,0.9c4.8-1,9-3.4,12.2-7.1
		c8.4-10,10.1-24.4,8.5-36.9C79.9,36.1,75.1,22,63.4,14.1C56.3,9.2,47.2,7.9,38.8,9c-10.7,1.4-20.5,5.6-30.2,9.9
		c-0.8,0.3,0.5,1.1,0.7,1.2c0.5,0.3,2.5,1.7,3.2,1.4c3.8-1.7,7.6-3.3,11.5-4.8c6.5-2.8,13.4-3.2,20.6-1.2c7.7-3,14.2-2.3,19.4,2.2
		c5.2,4.1,8.8,9.4,11.4,15.4c1.7,4,2.8,8.3,3.6,12.5c0.9,4.6,1.3,9.6,1.1,14.3C79.9,70.7,77,83.4,66.7,89.2
		c-6,3.4-13.2,3.2-19.8,1.7c-4-0.9-7.7-2.1-11.4-3.9c-1.3-0.6-2.7-1.3-4-1.9c-13.1-9.1-19-19.8-17.6-32.3c0.3-4,1-7.9,1.8-11.8
		c-0.2-2,0.3-3.7,1.4-5.1c0.5-0.6,0.7-1.2,0.6-2c0.4-1.6,0.9-3.1,1.5-4.7c0.7-1.7,1.1-2.9,3.2-3.3c0.9-0.2-0.5-1.2-0.6-1.3
		C21.4,24.3,19.4,22.4,18.8,22.7z"/>
	<path opacity="0.1091" d="M20.2,24.9c-1.2,0.5-2,1-2.7,2.1c-0.4,0.5-0.7,1.2-1,1.8c-1.3,2.9-1.7,6.2-2.2,9.3
		c-0.4,2.4-1.1,4.8-1.6,7.1c-0.9,4-1.5,8-1.7,12.1c-0.3,5.6,0.3,11.3,2.6,16.4c5.5,12.6,18.9,18.9,31.6,22
		c6.2,1.5,13.3,2.3,19.5,0.1c12.8-4.6,17.8-18.9,18.8-31.4c0.7-8.9-0.2-18-2.9-26.6c-1.2-4-2.9-8-5.2-11.5
		c-4.1-6.2-9.4-11.3-16.5-13.9c-16.4-6.1-34,1.9-48.8,8.7c-0.8,0.4,0.8,1.4,1.3,1.1c6.6-3.1,13.3-6.2,20.2-8.4
		c4.2-1.3,8.9-2.4,13.3-2.5c1.5,0,3,0,4.5,0.1c5.9,0.1,10.8,2.7,14.6,8c5.8,2.1,9.9,5.7,12.2,11c1.7,5.7,3.4,11.3,5.1,17
		c0.7,4,0.8,8.2,0.6,12.3c-0.2,4.1-0.7,8.1-1.7,12.1c-1.2,6.7-5.6,11-13.3,12.9c-4,6.7-9.2,9.4-15.4,8.1c-6.6-1-12.9-3.1-18.9-6.1
		c-3-1.5-5.8-3.4-8.3-5.6c-1.5-1.2-2.8-2.6-4-4.1c-1.9-4.8-3.9-9.6-5.8-14.4c-0.8-4.4-0.1-9.5,0.6-13.9c0.5-3.4,1.3-6.8,2-10.2
		c0.2-1.2,0.3-2.4,0.4-3.7c0.4-2.9,0.6-7,3.7-8.5C22.2,25.8,20.7,24.6,20.2,24.9z"/>
	<path opacity="0.1091" d="M22.2,21c-1.9,0.8-2.9,1.8-3.8,3.7c-1.1,2.3-1.6,4.9-2.1,7.5c-1.2,6.2-3.2,12.2-3.7,18.5
		c-0.5,6.4,0,12.7,2.4,18.7c4.3,10.8,15.2,16.8,25.6,20.4c10.3,3.5,23.5,5.5,32.6-1.9c10.3-8.3,12.6-23.1,12.3-35.5
		c-0.2-8.5-2-17.3-5.6-25c-2-4.4-4.8-8.7-8.4-12c-4.5-4.2-9.6-6.7-15.6-8.1c-6-1.3-12.4-0.6-18.3,0.6c-8.9,1.8-17.3,5.6-25.5,9.2
		c-0.9,0.4,1.3,1.8,1.9,1.5c6.8-2.8,13.7-5.6,20.9-7c1.5-0.3,2.9-0.5,4.4-0.8c5.7,0.3,11.4,0.7,17.1,1c8.3,14.2,16.6,28.5,25,42.7
		c0.1,2.3,0.1,4.6-0.2,6.8c-0.5,6.4-1.7,13.1-5,18.7c-3.7,3.3-7.4,6.5-11,9.8c-1.7,0.6-3.4,1-5.2,1.1c-3.1,0.3-6.2,0.2-9.2-0.2
		c-4-0.6-8-1.6-11.9-2.9c-3.6-1.2-7-2.8-10.2-4.7c-7.9-4.9-13.7-11.5-14.8-22.4c-0.3-3.2-0.3-6.5,0-9.7c0.5-5.9,2.2-11.7,3.6-17.4
		c0.4-1.4,0.7-2.8,1.2-4.2c0.3-1.6,1.1-2.9,2.4-4c0.6-1.4,1.7-2.2,3.1-2.3C25,22.7,22.8,20.7,22.2,21z"/>
	<path opacity="0.1091" d="M19.3,24.3c-1,0.4-1.5,0.6-2.2,1.4c-1.2,1.2-2,2.8-2.5,4.4c-1.2,3.9-1.6,8-2.6,12c-1.7,7-3.2,14.7-2.1,22
		c0.7,4.5,2.1,8.8,4.5,12.7c3.8,6.2,10.5,10.7,17,13.6c6.3,2.8,13.4,5,20.4,5.5c8.2,0.5,16.2-1.3,21.6-7.8c7.4-8.7,9.7-20.8,9.2-32
		c-0.4-9-2.1-18.7-6.4-26.8c-2-3.7-4.4-7.2-7.4-10.2c-4.2-4.3-9.7-7.1-15.5-8.3C38,7.4,22.6,14.3,9.1,20.4c-0.9,0.4,2,2.1,2.7,1.8
		c16-7.3,36.9-16.8,53.1-4.7c12.9,9.6,17.1,28.1,16.2,43.6c-0.3,4.8-1.1,9.7-2.8,14.2c-1.3,4.2-3.8,7.5-7.7,9.9
		c-2.1,3.9-5.2,6.1-9.3,6.8c-3.6,0.7-7.2,0.7-10.8,0.2c-3.7-0.6-7.6-1.4-11.1-2.8c-5.2-2.1-10.5-4.5-14.8-8.2
		c-2.9-2.5-5.6-5.3-7.3-8.7c-1.2-5.3-2.4-10.6-3.5-15.9c0.1-3.1,0.4-6.2,1-9.2c0.6-3.4,1.4-6.7,2.1-10c0.4-0.6,0.6-1.2,0.5-2
		c0.1-0.8,0.3-1.6,0.5-2.4c0.5-2.3,1-5.5,3.7-6.4C22.6,26.2,20,24.1,19.3,24.3z"/>
	<path opacity="0.1091" d="M21.2,20.1c-1,0.4-1.5,0.6-2.3,1.4c-1.1,1.2-1.8,2.8-2.3,4.4c-0.7,2.4-1.1,4.9-1.6,7.4
		c-0.5,2.3-1.2,4.6-1.7,6.9c-0.7,3.2-1.3,6.4-1.6,9.6c-0.5,4.9-0.2,9.8,0.9,14.7c3,12.1,14,20,25.1,24c9.2,3.3,20.3,6,29.7,1.9
		c13.4-5.9,17.1-22.9,17.1-36.1c0-7.4-1.1-14.7-3.2-21.7c-1.2-4-3-8.2-5.4-11.8c-2.7-4.1-6-7.7-10.2-10.4c-4.7-3-9.9-4.5-15.5-5
		C44.2,5,37.8,6.3,31.9,8c-7.2,2.1-14,5.2-20.9,8.2c-0.9,0.4,1.8,2.1,2.5,1.9c6.8-2.7,13.6-5.4,20.7-7c6.6-1.5,14.5-2,21.2,0
		c1.4,0.5,2.8,0.9,4.2,1.4c7.8,4.3,13.3,10.2,16.4,17.7c2.9,6.5,4.4,13.6,5,20.6c0.2,2.3,0.4,4.6,0.4,6.9c-2.3,8.5-4.6,17-6.9,25.5
		c-4.5,6.3-12.1,8.9-20,8.3c-5.6-0.4-10.9-1.8-16.2-3.7c-4.4-1.6-8.6-3.3-12.5-6c-3-2.1-5.5-4.6-7.7-7.5c-1.4-1.7-2.5-3.5-3.3-5.5
		c-0.9-4.6-1.7-9.1-2.6-13.7c-0.2-4.7,0.9-10,2-14.5c0.6-2.4,1.3-4.7,1.9-7c0.5-1.7,0.9-3.4,1.6-5.1c0.3-0.7,0.6-1.4,0.9-2.1
		c1-2.4,2.6-3.7,4.8-3.9C24.6,22.3,21.9,19.8,21.2,20.1z"/>
	<path opacity="0.1091" d="M17.5,21.5c-1.4,0.6-1.8,0.6-2.7,2c-1,1.6-1.5,3.4-1.9,5.2c-0.4,1.8-0.6,3.6-0.8,5.5
		c-0.3,2.7-1.1,5.1-1.7,7.8C8.8,49.9,7.9,57.9,10,65.8c1.3,4.9,4,9.3,7.4,13c5.7,6.1,13.6,10,21.5,12.5c3.9,1.2,8,2.1,12,2.5
		c4.7,0.4,9.4,0.1,13.7-1.7c3.4-1.4,6.3-3.6,8.6-6.4c6.9-8.1,8.9-19.5,8.7-29.8c-0.2-12.7-3.5-26-11.5-36.2
		C65.9,13.9,59.3,9.8,52,8.2c-4.5-1-9.2-1.1-13.8-0.6C27.5,8.8,17.4,13.3,7.6,17.7c-0.8,0.4,0.6,1.1,0.8,1.2
		c0.6,0.3,2.6,1.8,3.3,1.5c3.2-1.4,6.4-2.7,9.6-4c2-0.8,4-1.5,6.1-2.2c9.7-0.6,19.5-1.1,29.2-1.7c6.4,1.9,11.4,6.8,15.2,12.1
		c2.2,3.1,4.1,6.9,5.3,10.6c1.3,7.7,2.7,15.4,4,23c0,1.6-0.1,3.2-0.1,4.8c-0.1,6.9-3.2,12.6-9.4,17c-1.7,8-5.9,12.3-12.5,12.9
		c-5.3-0.5-10.5-1-15.8-1.5c-2.1-0.5-4.2-1.2-6.2-2.1c-6.9-2.7-13.5-6.6-18.2-12.5c-4.5-5.6-6.6-12.5-6.8-19.7
		c-0.1-4,0.4-7.8,1.1-11.8c0.3-1.7,0.6-3.3,0.9-5c0.7-2.1,1.3-4.2,1.9-6.4c0.5-2,1.2-3.9,2.1-5.8c0.8-1.8,1.3-2.9,3.5-3.4
		c1-0.2-1-1.6-1.1-1.7C19.8,22.6,18.4,21.1,17.5,21.5z"/>
</g>
<g>
	<path opacity="0.1091" d="M48.4,50.8c0.5,0-0.7-1.5-1.2-1.5C46.8,49.3,48,50.8,48.4,50.8z"/>
	<path opacity="0.1091" d="M48.8,49.9c0.5,0-0.4-1.1-0.7-1.1C47.5,48.8,48.4,49.9,48.8,49.9z"/>
	<path opacity="0.1091" d="M49.1,50.7c0.4,0-1-1.8-1.5-1.8C47.2,48.9,48.6,50.7,49.1,50.7z"/>
	<path opacity="0.1091" d="M50.1,51.8c0.4,0-1.2-2-1.7-2C48,49.8,49.5,51.8,50.1,51.8z"/>
	<path opacity="0.1091" d="M50,50.9c0.4,0-1-1.8-1.5-1.8C48,49.1,49.4,50.9,50,50.9z"/>
	<path opacity="0.1091" d="M48.3,50.1c0.2,0,0.4-0.5,0.1-0.5C48.2,49.6,48,50.1,48.3,50.1z"/>
	<path opacity="0.1091" d="M48,50.7c0.5,0-0.3-0.9-0.6-0.9C46.9,49.8,47.7,50.7,48,50.7z"/>
	<path opacity="0.1091" d="M48.8,51.9c0.4,0-0.8-1.6-1.3-1.6C47.1,50.3,48.4,51.9,48.8,51.9z"/>
	<path opacity="0.1091" d="M49.7,49.8c0.5,0-0.4-1.1-0.8-1.1C48.4,48.7,49.3,49.8,49.7,49.8z"/>
	<path opacity="0.1091" d="M48.2,51.4c0.5,0-0.5-1.3-0.9-1.3C46.8,50.2,47.8,51.4,48.2,51.4z"/>
	<path opacity="0.1091" d="M49.2,49.5c0.5,0,0.2-0.7-0.1-0.7C48.7,48.9,48.9,49.5,49.2,49.5z"/>
	<path opacity="0.1091" d="M47.9,50.5c0.2,0,0.4-0.5,0.1-0.5C47.8,50.1,47.6,50.5,47.9,50.5z"/>
</g>
<g>
	<path opacity="0.1091" d="M65,47.7c-1.7-1.6-3.6-2.8-5.7-3.6c-2.2-0.9-4.5-1.3-6.8-1.4c-0.6-0.1,0.1,1.7,0.5,1.7
		c2.2,0.1,4.4,0.5,6.5,1.4c2,0.9,3.8,2.1,5.4,3.6C65.2,49.7,65.3,47.9,65,47.7z"/>
	<path opacity="0.1091" d="M65.2,46.4c-1.9-1.5-3.5-2.8-5.8-3.6c-2.3-0.8-4.4-1.1-6.9-1.3c-0.1,0,0.3,2.4,1,2.5
		c4.6,0.3,8.5,2,11.6,5.1C65.4,49.3,65.7,46.7,65.2,46.4z"/>
	<path opacity="0.1091" d="M65.6,47.5c-0.9-0.7-1.8-1.4-2.7-2.1c-1.5-1-3-1.7-4.7-2c-2.7-0.8-1.4-0.5-5.2-0.9
		c-0.6-0.1,0.2,1.8,0.5,1.8c2.9,0,5.5,0.8,7.9,2.2c1.5,0.7,2.8,1.6,4,2.8C65.8,49.8,65.9,47.7,65.6,47.5z"/>
	<path opacity="0.1091" d="M66.3,47.9c-2.4-1.8-4.5-3.4-7.5-4.2c-2.9-0.8-1.3-0.5-5.4-0.9c-0.3,0-0.5,0.4-0.1,0.4
		c3.1,0,5.9,0.7,8.4,2.2c1.6,0.7,2.9,1.7,4.2,2.9C66.2,48.7,66.6,48.1,66.3,47.9z"/>
	<path opacity="0.1091" d="M66.3,47.4c-1.7-1.6-3.6-2.8-5.7-3.6c-2.2-0.9-4.5-1.3-6.9-1.4c-0.5-0.1,0,1.2,0.3,1.2
		c2.3,0.1,4.5,0.6,6.6,1.6c2,0.9,3.9,2.1,5.5,3.6C66.5,49.1,66.6,47.6,66.3,47.4z"/>
	<path opacity="0.1091" d="M64.4,46c-1.9-1.5-3.7-2.8-5.9-3.7c-2.4-0.9-4.4-1.1-6.9-1.3c-0.1,0,0.4,2.3,0.9,2.3
		c2.9,0,5.5,0.7,7.9,2.1c1.5,0.7,2.8,1.6,4,2.8C64.7,48.6,64.8,46.3,64.4,46z"/>
	<path opacity="0.1091" d="M64.4,47.3c-1.7-1.6-3.6-2.8-5.7-3.6c-2.2-0.9-4.5-1.3-6.9-1.4c-0.6-0.1,0.2,1.8,0.5,1.8
		c2.9,0,5.5,0.6,7.9,2.1c1.5,0.7,2.8,1.6,4,2.8C64.6,49.3,64.7,47.6,64.4,47.3z"/>
	<path opacity="0.1091" d="M65.2,48.2c-2.3-1.8-4.5-3.3-7.4-4.2c-2.8-0.8-1.3-0.5-5.2-0.8c-0.4,0-0.5,0.5-0.2,0.6
		c3-0.1,5.8,0.6,8.3,2c1.6,0.7,2.9,1.6,4.2,2.8C65.1,48.8,65.5,48.4,65.2,48.2z"/>
	<path opacity="0.1091" d="M66.1,46.2c-1.9-1.5-3.6-2.8-5.9-3.6c-2.3-0.9-4.3-1-6.7-1.2c-0.6,0,0.2,1.9,0.6,2
		c2.9,0.1,5.6,0.9,7.9,2.4c1.5,0.7,2.8,1.7,4,2.9C66.2,48.8,66.4,46.5,66.1,46.2z"/>
	<path opacity="0.1091" d="M64.6,47.9c-1.4-1.1-2.6-2-4.2-2.8c-2.8-1.4-5.3-1.8-8.4-2.1c-0.5-0.1-0.1,1,0.2,1c1.7,0,3.4,0.2,5,0.8
		c2.7,0.6,5.1,1.9,7.2,4C64.8,49.1,64.8,48.1,64.6,47.9z"/>
	<path opacity="0.1091" d="M65.6,45.6c-2.4-1.8-3-2.5-5.9-3.6c-2.9-1.1-3.9-1-7-1.3c-0.1,0,0.4,2.3,0.8,2.4
		c4.7,0.3,8.7,2.1,11.9,5.2C65.8,48.5,66,45.9,65.6,45.6z"/>
	<path opacity="0.1091" d="M64.1,46.7c-0.9-0.7-1.8-1.4-2.7-2.1c-1.5-1-3.1-1.7-4.8-2.1c-2.7-0.8-1.5-0.5-5.2-0.9
		c-0.6-0.1,0.2,1.9,0.6,1.9c2.9,0,5.6,0.6,7.9,2.1c1.5,0.7,2.8,1.6,4,2.8C64.3,48.7,64.4,46.9,64.1,46.7z"/>
</g>
<g>
	<path opacity="0.1091" d="M65.6,45.8c0-3.1,0.1-6.1,0-9.2c0-0.7-0.2-1.3-0.6-1.8c-0.5-0.8-1.5-1.2-2.3-1.4
		c-5.6-1.6-9.9,3.4-12.7,7.4c-0.1,0.2,1.6,1,1.9,0.5c1.9-3,4.3-6,8.1-6.5c0.9-0.3,1.7-0.1,2.5,0.6c1.1,0,1.7,0.5,1.9,1.4
		c0,0.3,0,0.6,0.1,0.8c-0.2,3-0.2,6-0.1,9.1C64.3,47.2,65.6,46.2,65.6,45.8z"/>
	<path opacity="0.1091" d="M66,44.7c0,1.1,0.6-8-0.2-10.3c-0.4-1.1-1.2-1.7-2.3-2c-5.8-2.1-10.3,3.3-13.2,7.5
		c-0.2,0.2,1.5,1,1.8,0.6c2-2.7,4.5-5.7,8-6c1.5-0.1,3.6,0.1,4.1,2c0,0.3,0,0.5,0.1,0.8c-0.3,3-0.3,6-0.2,9
		C64.2,46.6,66,45.2,66,44.7z"/>
	<path opacity="0.1091" d="M66.2,45.6c0.1-3.1,0.1-6.2,0-9.2c0-0.7-0.2-1.3-0.6-1.8c-0.6-0.8-1.5-1.2-2.5-1.4
		c-1.9-0.4-4.1,0.1-5.8,0.9c-2.9,1.4-4.8,4-6.6,6.6c-0.2,0.2,1.3,0.8,1.6,0.5c2-2.8,4.5-5.8,8.2-6.1c1.6-0.1,3.7,0.2,4.1,2.2
		c0,0.3,0,0.6,0,0.8c-0.3,3-0.4,6-0.2,9C64.5,47.4,66.2,46.1,66.2,45.6z"/>
	<path opacity="0.1091" d="M67,46.3c0-2.8,0-5.5,0-8.3c0-0.5,0-0.9-0.1-1.4c-0.2-0.8-0.4-1.3-1.1-1.8c-1.2-1-2.6-1.4-4.2-1.3
		c-2.1,0.1-4.2,0.8-6,2c-2.1,1.5-3.5,3.7-4.9,5.8c-0.1,0.2,0,0.6,0.1,0.4c1.1-1.4,2.1-2.8,3.2-4.2c3.3-3.8,6.5-4.5,9.5-2.2
		c1.6,0.2,2.3,0.9,2.1,2.4c0.4,3.1,0.4,6.3,0.1,9.5C65.9,47.5,67,46.6,67,46.3z"/>
	<path opacity="0.1091" d="M67.1,45.5c0,1.6,0.7-8.1-0.2-10.3c-0.5-1.2-1.7-1.9-2.9-2.1c-5.7-1.2-9.7,3.3-12.7,7.4
		c-0.3,0.4,0.4,0.6,0.6,0.4c1.3-1.8,2.9-3.9,4.9-5c0.6-0.3,1.1-0.5,1.7-0.8c1.5-0.7,2.9-0.6,4.4,0.4c2.2,0.7,2.7,0.3,2.8,2.1
		c0.2,2.8-0.2,9.1-0.2,9.5C65.3,47.3,67.1,46,67.1,45.5z"/>
	<path opacity="0.1091" d="M65.3,44.4c0-3,0.3-6.1,0-9.1c0-0.3-0.1-0.7-0.2-1.1c-0.3-1.1-1.2-1.7-2.2-2.1c-1.9-0.7-3.9-0.5-5.8,0.1
		c-3.6,1.3-5.7,4.2-7.7,7.3c-0.1,0.2,1.5,0.9,1.8,0.5c1.8-2.6,4.2-5.7,7.5-6.4c1.1-0.2,2.4-0.3,3.5,0c1.5,0.4,2.2,1.3,2.1,2.5
		c0.2,3,0.2,6,0,9C64.2,45.6,65.3,44.8,65.3,44.4z"/>
	<path opacity="0.1091" d="M65.2,45.5c0-3,0.1-6.1,0-9.1c0-0.4-0.1-0.7-0.2-1.1c-0.4-1.3-1.6-2-2.8-2.3c-5.7-1.6-10,3.4-12.9,7.5
		c-0.1,0.2,1.8,1.1,2.1,0.6c1.6-2.6,3.4-5,6.4-6.3c0.5-0.3,1.1-0.5,1.7-0.5c0.9-0.3,1.8-0.2,2.6,0.4c1.4-0.1,2.1,0.5,1.9,1.8
		c0.7,3.1,0.7,6.3,0.2,9.5C64.2,46.5,65.2,45.8,65.2,45.5z"/>
	<path opacity="0.1091" d="M66.1,46.6c0,1.5,0.6-7.9-0.1-10.3c-0.1-0.3-0.3-0.8-0.5-1c-0.9-1.1-2.3-1.6-3.7-1.7
		c-5.4-0.4-8.9,3.7-11.7,7.8c-0.3,0.4,0.6,0.6,0.8,0.4c2.4-5.1,7.2-6.6,14.5-4.4c0.1,3.1,0.1,6.2-0.1,9.2
		C65.4,47.1,66,46.9,66.1,46.6z"/>
	<path opacity="0.1091" d="M67.1,44.3c0,1.1,0.6-8-0.3-10.4c-0.5-1.3-1.8-1.9-3.1-2.2c-5.6-1-9.7,3.7-12.6,7.8
		c-0.3,0.4,0.6,0.8,0.8,0.5c2.3-2.9,5.1-6,9.1-6.1c1.6-0.1,3.8,0.3,4.2,2.3c0,0.3,0,0.5,0,0.8c-0.3,3-0.4,6-0.2,9
		c0,0.5,0.7-0.2,0.7-0.2C66,45.6,67.1,44.8,67.1,44.3z"/>
	<path opacity="0.1091" d="M65.5,46.2c0-2.8,0.1-5.6,0.1-8.3c0-0.5,0-0.9-0.1-1.4c-0.1-0.5-0.1-0.5-0.3-1c-0.8-1.6-3-2.2-4.7-2.1
		c-1.4,0.1-2.8,0.4-4.1,1.1c-3,1.5-4.9,4-6.7,6.7c-0.3,0.5,1.3,0.8,1.5,0.4c0.7-1.3,1.6-2.6,2.5-3.7c1.3-1.9,3.2-2.6,5.7-2.3
		c2.9-1.9,4.8-1.3,5.5,1.6c0.1,3.1,0,6.1-0.1,9.2C64.8,46.8,65.5,46.5,65.5,46.2z"/>
	<path opacity="0.1091" d="M66.6,43.9c0,1,0.6-8-0.3-10.4c-0.4-1.1-1.3-1.7-2.4-2.1c-5.9-2-10.5,3.5-13.4,7.7
		c-0.2,0.3,0.8,0.7,1,0.5c2.3-2.9,5-5.9,9-6.2c1.6-0.1,3.9,0.2,4.3,2.1c0,0.3,0,0.5,0.1,0.8c-0.3,3-0.4,6-0.2,9
		C64.7,45.9,66.6,44.4,66.6,43.9z"/>
	<path opacity="0.1091" d="M65,44.9c0-3,0.3-6.2,0-9.2c0-0.3-0.1-0.7-0.2-1c-0.4-1.2-1.7-2.1-3-2.3c-1.7-0.4-3.4-0.2-5.1,0.4
		C53.2,34,51,36.9,48.9,40c-0.1,0.2,1.7,1,1.9,0.5c1.7-2.6,3.6-5.1,6.6-6.4c1.1-0.6,2.3-0.6,3.6,0c1.8-0.6,2.8-0.2,3,1.1
		c0.9,2.7,0.2,9.2,0.2,9.8C64.3,45.6,65,45.2,65,44.9z"/>
</g>
<g>
	<path opacity="0.1091" d="M35.5,38.7c-3.8,0-7.1-0.3-10.8-1.1c-0.5-0.1,0.2,0.7,0.2,0.6c0.3,0.3,0.8,0.8,1.3,0.9
		c3.7,0.8,7,1.1,10.8,1.2C37.3,40.2,35.9,38.7,35.5,38.7z"/>
	<path opacity="0.1091" d="M35.6,37.6c-3.9,0-7.1-0.3-10.9-1.1c-0.5-0.1,0.3,0.8,0.3,0.7c0.4,0.4,1,1,1.5,1.1
		c3.7,0.8,6.9,1.1,10.7,1.1C37.6,39.4,36.2,37.6,35.6,37.6z"/>
	<path opacity="0.1091" d="M36.1,38.5c-3.6,0.2-7.2-0.2-10.7-1.1c-0.8-0.2,0.6,1.2,0.9,1.3c3.7,0.8,7.1,1.2,10.9,1.2
		C37.7,39.9,36.5,38.5,36.1,38.5z"/>
	<path opacity="0.1091" d="M36.4,38.9c-3.7,0.2-7.3-0.1-10.9-1.1c-0.2,0-0.4,0.4-0.1,0.5c3.7,0.8,7.1,1.1,10.9,1.1
		C36.6,39.4,36.7,38.9,36.4,38.9z"/>
	<path opacity="0.1091" d="M36.7,38.4c-3.8,0-7-0.3-10.8-1.1c-0.5-0.1,0,0.7,0.4,0.8c3.7,0.8,6.9,1.1,10.7,1.1
		C37.6,39.2,37,38.4,36.7,38.4z"/>
	<path opacity="0.1091" d="M34.6,37.1c-3.9,0-7.1-0.3-10.9-1.1c-0.5-0.1,0.4,0.8,0.3,0.7c0.4,0.4,1,1,1.6,1.1
		c3.7,0.8,6.9,1.1,10.8,1.2c0.5,0-0.3-0.7-0.3-0.7C35.8,38,35.1,37.1,34.6,37.1z"/>
	<path opacity="0.1091" d="M34.8,38.3c-3.9,0-7.1-0.3-10.8-1.1c-0.5-0.1,0.3,0.7,0.2,0.7c0.4,0.4,0.9,0.9,1.4,1
		c3.8,0.8,7,1.2,10.8,1.2C36.8,40,35.3,38.3,34.8,38.3z"/>
	<path opacity="0.1091" d="M35.5,39.4c-3.8,0-7.1-0.3-10.8-1.1c-0.5-0.1,0,0.6,0.3,0.7c3.7,0.8,7,1.1,10.8,1.2
		C36.4,40.1,35.9,39.4,35.5,39.4z"/>
	<path opacity="0.1091" d="M36.5,37.4c-3.6,0.2-7.2-0.2-10.7-1.1c-0.7-0.2,0.4,1.1,0.8,1.1c3.7,0.8,7,1.1,10.8,1.1
		C37.8,38.6,36.8,37.4,36.5,37.4z"/>
	<path opacity="0.1091" d="M35,39.1c-3.8,0-7-0.3-10.7-1.1c-0.7-0.2,0.4,1,0.7,1.1c3.8,0.8,7.1,1.2,10.9,1.2
		C36.5,40.3,35.4,39.1,35,39.1z"/>
	<path opacity="0.1091" d="M36,37c-3.9,0-7.1-0.3-10.9-1.1c-0.4-0.1,0.2,0.7,0.2,0.6c0.2,0.3,0.8,0.7,1.2,0.8
		c3.7,0.8,6.9,1.1,10.7,1.1C37.6,38.4,36.4,37,36,37z"/>
	<path opacity="0.1091" d="M34.3,37.6c-3.9,0-7.1-0.3-10.9-1.1c-0.5-0.1,0.4,0.8,0.3,0.7c0.4,0.4,1,1,1.5,1.1
		c3.7,0.8,7,1.2,10.8,1.2c0.5,0-0.3-0.7-0.3-0.7C35.5,38.5,34.7,37.6,34.3,37.6z"/>
</g>
<g>
	<path opacity="0.1091" d="M38.9,36.3c-0.2-3.9,0.2-8.6-3.7-10.8c-1.6-0.9-3.2-0.9-4.8-0.1c-3.5,1.8-5.7,5.1-7.6,8.3
		c-0.3,0.5,1.7,0.7,1.8,0.4c0.7-1.2,1.5-2.4,2.4-3.4c0.9-1.2,2-2.3,3.2-3.1c0.8-0.7,1.4-1.1,2.5-1.1c1-0.2,1.7,0.2,2.3,1.2
		c1.2,0.5,1.9,1.4,2.2,2.6c0.6,2.3,0.5,4.7,0.6,7.1C37.7,37.9,38.9,36.7,38.9,36.3z"/>
	<path opacity="0.1091" d="M39.3,35.2c-0.2-3.8,0.2-7.9-3.1-10.5C30.7,20.6,25.2,29,22.9,33c-0.1,0.2,1.6,0.6,1.8,0.4
		c0.7-1.2,1.6-2.3,2.5-3.3c0.9-1.2,2-2.1,3.2-2.9c0.8-0.6,1.3-0.9,2.4-0.9c5-0.1,4.6,7.5,4.7,10.7c0,0.5,0.7-0.3,0.7-0.3
		C38.5,36.4,39.3,35.7,39.3,35.2z"/>
	<path opacity="0.1091" d="M39.5,36.1c-0.2-3.9,0.2-8.7-3.8-10.8c-1.6-0.8-3.2-0.7-4.7,0.1c-3.4,1.8-5.6,5.1-7.6,8.3
		c-0.3,0.5,1.4,0.6,1.6,0.4c1.7-2.6,3.3-4.4,5.8-6.4c0.8-0.6,1.4-0.9,2.4-0.9c5.1,0,4.6,7.6,4.7,10.9C37.9,38,39.5,36.6,39.5,36.1z"
		/>
	<path opacity="0.1091" d="M40.3,36.8c-0.1-2.5,0.2-5.5-1-7.9c-0.9-1.6-2.5-3.5-4.5-3.7c-1.3-0.2-2.3-0.1-3.5,0.6
		c-3.5,1.9-5.8,5.2-7.7,8.6c-0.1,0.2,0.1,0.6,0.2,0.3c2.6-2.9,5.2-5.7,7.9-8.6c3.6-0.2,5.9,1,6.8,3.6c0.5,0.9,0.7,2,0.6,3.1
		c0.2,1.6,0.3,3.1,0.3,4.7C39.4,38,40.3,37.1,40.3,36.8z"/>
	<path opacity="0.1091" d="M40.3,36c-0.1-2.8,0.2-6.2-1.4-8.6c-1.2-1.7-3.5-3.3-5.7-2.8c-1.1,0.3-2,0.8-2.9,1.5
		c-2.8,2-4.7,4.5-6.4,7.3c-0.3,0.4,0.4,0.6,0.6,0.4c2.2-3.4,5.5-8.6,10.1-7.6c4.7,1.1,4,8,4.2,11.3C38.8,37.9,40.3,36.5,40.3,36z"/>
	<path opacity="0.1091" d="M38.5,34.9c-0.2-3.9,0.2-8.6-3.7-10.9c-1.7-1-3.3-0.9-5-0.1c-3.5,1.8-5.8,5.3-7.7,8.6
		c-0.3,0.5,1.5,0.6,1.7,0.4c0.7-1.2,1.6-2.4,2.6-3.4c0.9-1.2,2.1-2.3,3.4-3.1c0.8-0.7,1.5-1.1,2.6-1.1c1-0.2,1.8,0.2,2.4,1.1
		c1.2,0.4,2,1.2,2.3,2.4c0.7,2.2,0.5,4.8,0.6,7.1C37.5,36.3,38.5,35.3,38.5,34.9z"/>
	<path opacity="0.1091" d="M38.4,36.1c-0.2-3.9,0.3-8.6-3.7-10.9c-1.6-0.9-3.3-1-4.9-0.1c-3.6,1.8-5.9,5.2-7.8,8.6
		c-0.1,0.2,1.8,0.7,2.1,0.2c1-1.6,2-3.2,3.2-4.5c0.8-0.7,1.5-1.3,2.3-2c0.5-0.7,1.2-1.1,2.1-1.1c1.1-0.6,2.1-0.3,2.9,0.9
		c1,0.3,1.7,0.9,2,1.8c0.5,0.9,0.7,1.9,0.6,2.9c0.2,1.5,0.3,3.1,0.3,4.7C37.5,37.3,38.4,36.4,38.4,36.1z"/>
	<path opacity="0.1091" d="M39.3,37c-0.1-2.8,0.3-6.2-1.4-8.7c-0.6-1-1.6-1.9-2.7-2.4c-1.3-0.7-2.7-0.9-4.1-0.3
		c-3.8,1.8-6.4,5.5-8.4,8.9c-0.2,0.4,0.7,0.5,0.8,0.2c1.1-2.5,2.6-4.6,4.6-6.3c2.2-2.7,5.3-2.6,9.2,0.2c0.4,1.2,0.8,2.5,1.1,3.7
		c0.1,1.6,0.1,3.2,0.2,4.8C38.7,37.6,39.3,37.4,39.3,37z"/>
	<path opacity="0.1091" d="M40.3,34.8c-0.2-4.2,0.2-9.6-4.7-11.2c-2.1-0.7-3.8,0.2-5.5,1.5c-2.8,2.1-4.6,4.5-6.4,7.4
		c-0.3,0.4,0.7,0.5,0.9,0.2c2.2-2.1,4.4-4.3,6.6-6.4c0.3-0.2,0.6-0.3,0.9-0.5c0.9-0.3,2.1-0.2,2.9,0.2c0.9,0.3,1.5,0.9,1.7,2
		c0.8,0.8,1.3,1.7,1.3,2.9c0.3,1.9,0.3,3.9,0.3,5.9c0,0.5,0.7-0.3,0.7-0.3C39.4,36.2,40.3,35.3,40.3,34.8z"/>
	<path opacity="0.1091" d="M38.7,36.7c-0.1-2.8,0.3-6.2-1.4-8.7c-0.9-1.3-2.4-2.6-4-2.9c-1.8-0.3-3.2,0.5-4.6,1.5
		c-2.8,2-4.7,4.7-6.4,7.6c-0.3,0.5,1.3,0.5,1.5,0.2c2.2-3.8,7.5-12.6,12.6-6.6c2.1,2.4,1.6,6.1,1.7,9C38,37.4,38.7,37.1,38.7,36.7z"
		/>
	<path opacity="0.1091" d="M39.8,34.4c-0.2-3.8,0.2-8-3.2-10.5c-1.8-1.3-3.8-1.4-5.7-0.2c-3.4,2-5.7,5.2-7.7,8.5
		c-0.3,0.4,0.9,0.5,1.1,0.3c1.3-1.5,2.6-3,3.9-4.5c0.9-0.8,1.9-1.5,3-2.1c0.8-0.4,1.8-0.7,2.8-0.4c0.4,0.2,0.8,0.3,1.2,0.5
		c0.8,1.1,1.5,2.2,2.3,3.3c0.8,1.9,0.5,5.1,0.5,7.1c0,0.5,0.7-0.3,0.7-0.3C39,35.7,39.9,34.9,39.8,34.4z"/>
	<path opacity="0.1091" d="M38.2,35.4c-0.2-4,0.3-8.6-3.8-10.9c-1.7-0.9-3.3-0.9-5-0.1c-3.6,1.8-5.9,5.2-7.8,8.5
		c-0.3,0.5,1.7,0.6,1.8,0.4c1.1-1.6,2.1-3.3,3.4-4.7c0.8-0.7,1.6-1.4,2.3-2c0.5-0.7,1.3-1.1,2.2-1.1c1.2-0.6,2.2-0.3,3,0.8
		c1.5,0.4,2.2,1.4,2.3,2.9c0.7,2.2,0.6,4.2,0.7,6.5C37.5,36.4,38.2,35.8,38.2,35.4z"/>
</g>
<g>
	<path opacity="0.1091" d="M57.1,66.9c0.1-1.2,0.1-1.6-0.4-2.7c-0.5-0.9-1.2-1.7-2-2.3c-1.9-1.8-4-3.4-6.2-4.7
		c-8.1-5.1-17.4-7.2-26.6-9.5c-0.5-0.1,0.1,1.6,0.5,1.7c8,2.1,16.3,3.9,23.5,8c2.9,1.6,5.6,3.5,8,5.9c1.2,1,1.8,2.3,1.7,4.1
		C55.5,67.9,57.1,67.2,57.1,66.9z"/>
	<path opacity="0.1091" d="M57.5,65.9c0.1-1.4,0.3-1.4-0.4-2.7c-1.1-2.2-4.5-4.7-6.1-5.8c-8.7-5.9-18.9-8.4-29-10.8
		c-0.5-0.1,0.3,2.2,0.7,2.3c7.8,2.2,16.1,4,23.2,8.1c2.8,1.6,5.4,3.5,7.8,5.7c1.2,1.1,2,1.9,1.7,3.8C55.4,67,57.5,66.3,57.5,65.9z"
		/>
	<path opacity="0.1091" d="M57.8,66.6c0.1-1.1,0.1-1.6-0.4-2.6c-0.6-0.9-1.2-1.7-2-2.3c-1.9-1.8-4-3.4-6.2-4.6
		c-8.1-5-17.4-7.2-26.6-9.5c-0.5-0.1,0.1,1.7,0.5,1.8c8.8,2.4,17.7,4.6,25.4,9.6c2.2,1.4,4.3,3.1,6.2,5c1,1,1.4,1.9,1.1,3.5
		C55.5,67.8,57.7,67.1,57.8,66.6z"/>
	<path opacity="0.1091" d="M58.6,67.5c0.1-1.3,0.1-1.7-0.5-2.8c-1.1-2.1-4.6-4.6-6-5.7c-8.6-6.2-19-8.7-29.1-11.1
		c-0.3-0.1-0.6,0.3-0.3,0.4c5.1,1.2,10.4,2.4,15.3,4.2c5.7,2.2,20.4,8.1,19,15.4C56.8,68.4,58.6,67.8,58.6,67.5z"/>
	<path opacity="0.1091" d="M58.7,66.5c0.1-1.2,0-1.6-0.5-2.6c-0.6-0.9-1.3-1.6-2.1-2.3c-1.9-1.8-4-3.4-6.3-4.6
		c-8.2-5.1-17.4-7.2-26.7-9.5c-0.5-0.1,0,1.1,0.3,1.2c9,2.4,18,4.7,25.8,10c2.2,1.5,4.4,3.2,6.2,5.2c0.9,1.1,1.3,2,0.9,3.6
		C56.2,67.8,58.7,67.1,58.7,66.5z"/>
	<path opacity="0.1091" d="M56.9,65.5c0.1-1.1,0.1-1.7-0.5-2.7c-0.9-1.7-2.6-2.9-4-4c-8.9-7.3-20.2-10-31.2-12.7
		c-0.5-0.1,0.3,2,0.7,2.1c8,2.1,16.2,3.9,23.6,7.8c3,1.5,5.8,3.4,8.3,5.7c1.4,0.9,2.2,2.3,2.3,4.1C56,66.2,56.9,65.8,56.9,65.5z"/>
	<path opacity="0.1091" d="M56.7,66.6c0.1-1.3-0.1-2.2-0.9-3.3c-1.4-2-3.7-3.7-5.5-5c-8.7-6-18.9-8.5-29.1-10.9
		c-0.5-0.1,0.1,1.6,0.5,1.7c10,2.5,35,7.8,34,17.7C55.7,67.3,56.7,66.9,56.7,66.6z"/>
	<path opacity="0.1091" d="M57.6,67.7c0.1-1.7-0.2-2.7-1.4-4.1c-1.3-1.6-3.9-3.6-5.1-4.5c-8.5-6.2-19-8.5-29.1-10.9
		c-0.3-0.1-0.5,0.5-0.2,0.5c5.9,1.4,11.8,2.7,17.5,4.8C45,55.7,57.4,61,56.7,67.8C56.6,68.3,57.6,68,57.6,67.7z"/>
	<path opacity="0.1091" d="M58.6,65.4c0.1-1.3,0.3-1.4-0.5-2.7C57,60.7,53.4,58,52,57.1c-8.8-5.9-19-8.3-29.1-10.7
		c-0.5-0.1,0.2,1.8,0.5,1.9c7.9,2.2,16.3,4.2,23.4,8.5c2.8,1.7,5.4,3.6,7.8,5.9c1.2,1.1,1.9,2,1.5,3.8C56,66.8,58.6,66.1,58.6,65.4z
		"/>
	<path opacity="0.1091" d="M57.1,67.3c0.1-1.2,0.2-1.6-0.5-2.7c-0.5-0.9-1.2-1.6-1.9-2.3c-3.6-3.6-8.5-6.4-13.2-8.3
		c-6.4-2.7-13.2-4.2-20-5.9c-0.5-0.1-0.1,0.9,0.2,0.9c6.6,1.6,13.2,3,19.5,5.6c3.2,1.3,6.2,2.9,9,4.9c3.3,1.7,5.3,4.3,6.1,8
		C56.2,67.8,57,67.6,57.1,67.3z"/>
	<path opacity="0.1091" d="M58.1,65.2c0.1-1.4,0.3-1.5-0.4-2.8c-1.1-2.2-4.6-4.8-6.2-5.8c-8.8-6-19-8.4-29.2-10.8
		c-0.5-0.1,0.2,2,0.7,2.2c7.9,2.2,16.3,4.1,23.4,8.3c2.9,1.7,5.4,3.6,7.9,5.8c1.2,1.1,2.1,2,1.8,3.8C56,66.4,58,65.6,58.1,65.2z"/>
	<path opacity="0.1091" d="M56.6,66.1c0.1-1.3,0.2-1.5-0.5-2.8c-0.9-1.6-2.6-2.8-4-4c-9-7.3-20.2-10-31.2-12.6
		c-0.5-0.1,0.2,1.6,0.5,1.7c4,1,8.1,1.9,12,3.1c4.1,1,7.8,2.8,11.3,5.4c5.7,1,9.5,4.1,11.4,9.1C56.1,66.3,56.6,66.3,56.6,66.1z"/>
</g>
<g>
	<path opacity="0.1091" d="M33,53.6c-2.8,3.8-5.7,8.7-2,13.1c1.8,2.1,4.6,2.1,7.1,1.4c4.8-1.5,8.8-5,12.4-8.4
		c0.4-0.4-1.2-0.9-1.5-0.7c-3.1,2.8-6.5,5.7-10.5,7.1c-1.5,0.5-3.2,0.8-4.7,0c-1.1-0.6-1.8-1.8-2.2-3c-1-3.7,1.7-7,3.7-9.6
		C35.6,53.2,33.3,53.2,33,53.6z"/>
	<path opacity="0.1091" d="M33.3,52.6c-1.8,2.4-3.7,4.9-3.7,8c0,2,0.6,4.4,2.3,5.7c2.2,1.7,4.8,1.3,7.3,0.6c1.9-0.6,3.8-1.8,5.4-2.9
		c2.3-1.6,4.1-3.4,6.1-5.3c0.4-0.4-1-0.7-1.2-0.5c-3,2.3-6.1,4.7-9.1,7c-0.6,0.2-1.1,0.5-1.7,0.7c-0.6,0.2-1.2,0.3-1.8,0.5
		c-3.5,0.4-5.1-0.9-5-4c-0.9-1.3-1-2.6-0.4-3.8c0.1-0.6,0.4-1.2,0.7-1.8c0.8-1.5,1.8-2.8,2.8-4.1C35.4,52.3,33.6,52.3,33.3,52.6z"/>
	<path opacity="0.1091" d="M33.7,53.4c-2.5,3.4-5.5,8.1-2.7,12.3c1.5,2.2,3.9,2.9,6.5,2.5c5.3-1,9.8-5.1,13.4-8.7
		c0.4-0.4-1.6-1-1.9-0.8c-3.1,2.8-6.3,5.7-10.3,7.2c-1.5,0.6-3.2,1-4.8,0.2c-2.1-1-2.8-3.8-2.4-6c0.4-2.6,2.2-4.7,3.7-6.8
		C35.8,53,34,53.1,33.7,53.4z"/>
	<path opacity="0.1091" d="M34,54.2c-1.6,2.1-3.4,4.5-3.7,7.2c-0.3,2.3,0.5,5.1,2.3,6.7c1,0.9,2.1,1.3,3.5,1.4c2,0.1,4.3-0.7,6-1.5
		c3.7-1.9,6.8-4.6,9.8-7.5c0.4-0.4-1.5-1-1.8-0.7c-2.8,2.6-5.6,5-9,6.7c-1.4,0.7-2.7,1.3-4.3,1.5c-2.8,0.3-5.8-1.5-5.9-4.9
		c0.4-1.7,0.9-3.5,1.3-5.2c0.7-1.1,1.4-2.2,2.3-3.3C34.9,54.1,34.2,53.9,34,54.2z"/>
	<path opacity="0.1091" d="M34.1,53.4c-2.8,3.9-5.6,8.8-2,13.1c1,1.3,2.3,1.9,4,2c2,0.1,4.3-0.6,6-1.5c3.7-1.9,6.8-4.6,9.7-7.5
		c0.4-0.4-1.6-1-1.9-0.7c-3.4,3.1-7,6.5-11.4,8c-1.6,0.8-3,0.1-4.2-2.2c-2.4-0.4-3.5-1.5-3.3-3.3c-0.1-1.3,0.3-2.4,1.2-3.4
		c0.5-1.6,1.3-3,2.4-4.2C35.2,53.3,34.3,53.1,34.1,53.4z"/>
	<path opacity="0.1091" d="M32.3,52.4c-1.9,2.6-4.1,5.5-3.7,8.9c0.3,2.4,1.4,4.9,3.8,5.9c2.6,1,6,0.1,8.4-1c3.8-1.7,6.8-4.8,9.7-7.6
		c0.2-0.2,0.1-0.6-0.1-0.3c-6.2,2.5-12.4,4.9-18.7,7.4c-0.2-1.1-0.4-2.1-0.7-3.2c-0.9-1.7-0.9-3.4-0.1-5c0.8-1.8,2-3.4,3.2-4.9
		C34.5,52,32.6,52,32.3,52.4z"/>
	<path opacity="0.1091" d="M32.2,53.4c-1.4,1.9-2.8,3.9-3.4,6.2c-0.5,2-0.4,4.5,0.9,6.2c1.7,2.3,4.1,2.8,6.8,2.3
		c5.3-1.1,9.7-5.1,13.5-8.6c0.3-0.3-0.6-0.6-0.8-0.4c-2.9,2.7-5.7,5-9.4,6.6c-1.4,0.6-3.5,1.4-5.1,1c-1.8-0.5-3.4-1.8-3.7-3.7
		c0.5-2.2,1-4.3,1.5-6.5c0.7-1.1,1.5-2.2,2.3-3.2C35.1,53,32.5,52.9,32.2,53.4z"/>
	<path opacity="0.1091" d="M33.1,54.5c-2.5,3.4-5.6,8.3-2.7,12.5c5.3,7.7,16.3-2.5,20.4-6.4c0.4-0.4-1.1-0.8-1.3-0.6
		c-3.3,2.9-6.7,5.6-10.9,7.2c-1.7,0.7-3.7,0.8-5.3-0.3c-5-3.3-1-9.3,1.4-12.5C35,54.1,33.3,54.2,33.1,54.5z"/>
	<path opacity="0.1091" d="M34,52.4c-1.8,2.4-3.8,5-3.8,8.1c0,2.1,0.7,4.7,2.4,6.1c1.5,1.2,3.6,1.3,5.4,0.9c5.5-1.1,9.9-5.3,13.7-9
		c0.4-0.4-1-0.7-1.2-0.5c-0.8,0.9-1.7,1.7-2.5,2.6c-5.7,0.3-11.5,0.5-17.2,0.8c0.3-0.9,0.5-1.8,0.8-2.7c0.1-1.4,0.5-2.5,1.3-3.6
		c0.5-0.9,1.1-1.7,1.8-2.5C34.9,52.3,34.2,52.1,34,52.4z"/>
	<path opacity="0.1091" d="M32.4,54.1c-1.6,2.2-3.4,4.5-3.7,7.2c-0.3,2.2,0.4,5.3,2.3,6.7c2.3,1.7,5.2,1.3,7.7,0.4
		c4.5-1.7,8.1-4.9,11.5-8.2c0.4-0.4-0.8-0.7-1-0.5c-3.2,2.8-6.7,5.8-10.9,7c-1.6,0.5-3.5,0.8-5-0.2c-1-0.7-1.8-1.9-2.1-3
		c-1-3.7,1.7-7,3.7-9.6C35,53.7,32.7,53.7,32.4,54.1z"/>
	<path opacity="0.1091" d="M33.5,52c-1.6,2.1-3.4,4.5-3.8,7.2c-0.3,2.4,0.5,5.4,2.3,7c1.1,1,2.3,1.3,3.8,1.3c1.4,0,2.8-0.4,4.1-0.9
		c4.5-1.6,8.1-5.1,11.4-8.4c0.4-0.4-0.3-0.7-0.6-0.4c-1.6,2.1-3.6,3.8-5.9,5.2c-1.5,1.5-3.2,2.6-5.2,3.3c-3.1-1.8-6.2-3.6-9.4-5.4
		c0.5-3.4,1.8-6.3,3.9-8.8C34.5,51.9,33.7,51.7,33.5,52z"/>
	<path opacity="0.1091" d="M31.8,52.9c-1.6,2.2-3.3,4.5-3.7,7.3c-0.4,2.8,1.2,6.4,4,7.4c2.5,0.9,5.7,0,8.1-1c3.8-1.7,7-4.7,9.9-7.6
		c0.2-0.2,0.1-0.6-0.1-0.3c-1.5,1.5-14.8,13.9-19.2,5.7c-2.3-4.3,1-8.5,3.4-11.5C34.4,52.5,32.1,52.5,31.8,52.9z"/>
</g>
<g>
	<path opacity="0.1091" d="M41.9,55.8c-1.7-0.2-2.7,0-4.2,0.7c-0.5,0.2,1.1,1.6,1.4,1.4c1.2-0.6,2.4-0.8,3.6-0.4
		C43.2,57.6,42.3,55.8,41.9,55.8z"/>
	<path opacity="0.1091" d="M42,54.6c-1.8-0.1-2.8,0.1-4.4,0.9c-0.1,0.1,1.4,1.8,1.8,1.7c1.2-0.6,2.4-0.7,3.7-0.3
		C43.6,57,42.5,54.7,42,54.6z"/>
	<path opacity="0.1091" d="M42.5,55.6c-1.7-0.2-2.7,0-4.2,0.7c-0.5,0.2,0.9,1.4,1.3,1.3c1.2-0.6,2.5-0.7,3.7-0.4
		C43.7,57.4,42.9,55.7,42.5,55.6z"/>
	<path opacity="0.1091" d="M42.9,55.9c-1.7-0.1-2.9,0.2-4.4,0.9c-0.3,0.1-0.3,0.6,0,0.4c1.4-0.3,2.8-0.6,4.2-0.8
		C43,56.4,43.2,56,42.9,55.9z"/>
	<path opacity="0.1091" d="M43.1,55.5c-1.7-0.2-2.6,0-4.2,0.7c-0.5,0.2,0.3,0.8,0.6,0.7c1.5-0.6,2.3-0.7,3.9-0.4
		C43.9,56.5,43.4,55.5,43.1,55.5z"/>
	<path opacity="0.1091" d="M41.1,54.1c-1.8-0.1-2.8,0.1-4.4,0.9c-0.1,0,1.5,1.9,2.1,1.7c1.2-0.6,2.4-0.7,3.5-0.3
		C42.7,56.5,41.6,54.2,41.1,54.1z"/>
	<path opacity="0.1091" d="M41.2,55.4c-1.8-0.2-2.8,0.1-4.4,0.8c-0.1,0.1,1.4,1.8,1.8,1.6c1.2-0.7,2.4-0.8,3.6-0.4
		C42.6,57.4,41.7,55.4,41.2,55.4z"/>
	<path opacity="0.1091" d="M42,56.4c-1.7-0.2-2.8,0.1-4.3,0.7c-0.4,0.2,0.2,0.7,0.5,0.6c1.3-0.2,2.5-0.5,3.8-0.7
		C42.4,57.1,42.3,56.4,42,56.4z"/>
	<path opacity="0.1091" d="M42.9,54.5c-1.7-0.2-2.7,0.1-4.2,0.8c-0.5,0.2,0.8,1.2,1.1,1.1c1.5-0.5,2.3-0.5,3.8-0.3
		C44.1,56.2,43.3,54.5,42.9,54.5z"/>
	<path opacity="0.1091" d="M41.4,56.2c-1.7-0.2-2.6,0-4.2,0.7c-0.5,0.2,0.8,1.2,1,1c1.4-0.7,2.1-0.8,3.7-0.6
		C42.4,57.4,41.8,56.2,41.4,56.2z"/>
	<path opacity="0.1091" d="M42.4,53.9c-1.8-0.1-2.8,0.1-4.3,0.9c-0.2,0.1,1.1,1.4,1.5,1.3c1.3-0.6,2.5-0.7,3.8-0.3
		C43.7,56,42.8,54,42.4,53.9z"/>
	<path opacity="0.1091" d="M40.8,54.7c-1.8-0.2-2.8,0.1-4.5,0.8c-0.1,0,1.4,1.8,2,1.6c1.2-0.6,2.3-0.7,3.5-0.4
		C42.3,56.9,41.3,54.7,40.8,54.7z"/>
</g>
</svg>
